<svg xmlns="http://www.w3.org/2000/svg" xmlns:xlink="http://www.w3.org/1999/xlink" width="186.523" height="186.522" viewBox="0 0 186.523 186.522">
  <defs>
    <linearGradient id="linear-gradient" x1="0.073" y1="0.047" x2="0.897" y2="0.931" gradientUnits="objectBoundingBox">
      <stop offset="0" stop-color="#ff0094"/>
      <stop offset="1" stop-color="#c900d1"/>
    </linearGradient>
  </defs>
  <path id="Subtraction_8" data-name="Subtraction 8" d="M172.522,186.522H14a13.984,13.984,0,0,1-7.122-1.945A142.841,142.841,0,0,0,16.3,167.543c2.824-5.917,5.655-12.553,8.652-20.287,5.566-14.359,10.856-30.369,15.972-45.851l.04-.12.893-2.7q.936-2.832,1.864-5.646c7.366-22.331,14.323-43.424,22.059-59C69.918,25.6,73.947,19.5,78.1,15.3a26.163,26.163,0,0,1,6.851-5.146A16.649,16.649,0,0,1,92.4,8.343H94.12a17.036,17.036,0,0,1,7.573,1.814,26.134,26.134,0,0,1,6.909,5.156c4.164,4.209,8.177,10.3,12.267,18.627,7.637,15.543,14.34,36.425,21.437,58.532.793,2.47,1.612,5.021,2.43,7.558l.316.98c5.064,15.7,10.3,31.932,15.838,46.411,2.981,7.794,5.81,14.472,8.647,20.416a135.475,135.475,0,0,0,9.521,17.069A14.029,14.029,0,0,1,172.522,186.522ZM1.359,178.553v0h0A13.871,13.871,0,0,1,0,172.522V14A14,14,0,0,1,14,0H83.4a30.353,30.353,0,0,0-7.429,5.119,53.7,53.7,0,0,0-6.9,7.832A126.246,126.246,0,0,0,56.517,35.32C48.587,52.735,41.5,74.161,34,96.844l0,.006c-10.034,30.347-20.41,61.727-32.64,81.7Zm185.161-32.6A311.538,311.538,0,0,1,168.039,94.8c-5.41-16.564-10.052-29.91-14.192-40.8A278.736,278.736,0,0,0,141.821,26.16,85.241,85.241,0,0,0,130.694,8.942,34.46,34.46,0,0,0,119.2,0h53.323a14,14,0,0,1,14,14V145.953Z" transform="translate(0.001)" fill="url(#linear-gradient)"/>
</svg>
