<?xml version="1.0" encoding="UTF-8"?>
<svg id="Layer_1" xmlns="http://www.w3.org/2000/svg" xmlns:xlink="http://www.w3.org/1999/xlink" version="1.1" viewBox="0 0 156 156">
  <!-- Generator: Adobe Illustrator 30.2.1, SVG Export Plug-In . SVG Version: 2.1.1 Build 1)  -->
  <defs>
    <style>
      .st0 {
        fill: none;
      }

      .st1 {
        fill: url(#radial-gradient);
      }

      .st2 {
        fill: #fff;
      }

      .st3 {
        clip-path: url(#clippath);
      }
    </style>
    <clipPath id="clippath">
      <rect class="st0" y="0" width="156" height="156" rx="15" ry="15"/>
    </clipPath>
    <radialGradient id="radial-gradient" cx="146.4" cy="169.2" fx="146.4" fy="169.2" r="1" gradientTransform="translate(-49219.5 3557.5) rotate(45) scale(220.6 -220.6)" gradientUnits="userSpaceOnUse">
      <stop offset="0" stop-color="#ff276a"/>
      <stop offset="1" stop-color="#bf6afe"/>
    </radialGradient>
  </defs>
  <path class="st2" d="M140.5,155.5H15.1c-1.6,0-3.2-.3-4.8-.8-1.5-.5-2.9-1.2-4.2-2.2,2.8-4.5,5.3-9.3,7.5-14.1,2.2-4.9,4.5-10.3,6.9-16.6,4.4-11.7,8.7-24.7,12.7-37.3l.8-2.4c.5-1.6,1.1-3.3,1.5-4.7,6-18.6,11.7-36.2,18.1-49.2,3.4-7,6.7-12,10.1-15.5,1.6-1.7,3.5-3.2,5.6-4.3,1.9-1,4-1.5,6.1-1.5h1.4c2.2,0,4.3.5,6.2,1.5,2.1,1.1,4,2.6,5.7,4.3,3.4,3.5,6.7,8.6,10.1,15.5,6.3,13,11.8,30.4,17.6,48.8h0c.6,2.1,1.3,4.2,2,6.3l.3.8c4.2,13.1,8.5,26.7,13,38.8,2.4,6.5,4.8,12.1,7.1,17,2.3,4.9,4.9,9.7,7.8,14.2-1.9.8-3.9,1.2-6,1.2ZM1.7,147.4c-.5-1-.9-2.1-1.2-3.3C.1,142.9,0,141.7,0,140.5V15.1c0-2,.4-4,1.2-5.9.8-1.8,1.9-3.4,3.2-4.8,1.4-1.4,3-2.5,4.8-3.2C11,.4,13,0,15.1,0h52.9c-2.2,1.1-4.3,2.5-6.1,4.3-2.1,2-4,4.2-5.7,6.5-3.4,4.8-6.8,10.9-10.3,18.7-3,6.6-5.9,14.3-9.4,24.1-3,8.7-6,17.7-9.1,27.2h0s0,0,0,0c-4,12.2-8.1,24.8-12.3,36.3-2.3,6.2-4.4,11.5-6.6,16.3-2.1,4.8-4.4,9.4-7,14h0ZM155.5,127.9c-7.1-13.8-13.2-30.2-18.2-48.8-4.4-13.8-8.2-24.9-11.6-34-3.6-9.5-6.8-17.1-9.9-23.2-3.1-6.1-6.1-10.8-9.1-14.4C103.8,4,100.7,1.6,97.4,0h43.1c2,0,4,.4,5.9,1.2,1.8.8,3.4,1.9,4.8,3.2,1.4,1.4,2.5,3,3.2,4.8.8,1.9,1.2,3.8,1.2,5.9v112.8Z"/>
  <g class="st3">
    <g>
      <path class="st1" d="M156,0H0v156h156V0Z"/>
      <path class="st2" d="M147.8,156c-11.6-16.8-20.3-44.6-29.1-72.3C106.2,44.6,95.4,7,77,7h-1.4c-17.8,0-28.8,36.4-41.6,75.5-9.1,27.9-18.2,56.4-29.8,73.5H0v-5.4c10.4-16.6,19.1-43.4,27.6-69.6C39.7,43.7,51.3,8.1,68.2,0h29.4c13.3,6.2,22.9,25.7,40.2,79.3,5.4,20,11.7,36.2,18.2,49v27.7h-8.2Z"/>
    </g>
  </g>
</svg>