<?xml version="1.0" encoding="utf-8"?>
<!-- Generator: Adobe Illustrator 21.0.0, SVG Export Plug-In . SVG Version: 6.00 Build 0)  -->
<svg version="1.1" id="Layer_1" xmlns="http://www.w3.org/2000/svg" xmlns:xlink="http://www.w3.org/1999/xlink" x="0px" y="0px"
	 viewBox="0 0 1872.065 700.66" enable-background="new 0 0 1872.065 700.66" xml:space="preserve">
<linearGradient id="SVGID_1_" gradientUnits="userSpaceOnUse" x1="935.9857" y1="628.9615" x2="935.9857" y2="142.4406">
	<stop  offset="0" style="stop-color:#FF276A"/>
	<stop  offset="1" style="stop-color:#E557FF"/>
</linearGradient>
<path fill="url(#SVGID_1_)" d="M1871.995,452.473c-8.334,1.015-15.168-36.486-21.897-73.413
	c-6.499-35.666-13.338-73.196-21.091-73.77c-7.911-0.586-15.16,37.343-22.3,74.694c-7.662,40.088-15.742,82.356-26.026,83.608
	c-10.547,1.284-19.217-40.864-27.775-82.462c-8.284-40.268-17.02-82.735-26.949-83.471c-10.157-0.752-19.49,42.227-28.704,84.656
	c-9.913,45.653-20.394,93.918-33.778,95.548c-13.798,1.68-25.161-46.456-36.409-94.106c-10.908-46.208-22.445-95.083-35.607-96.057
	c-13.517-1.001-25.98,48.58-38.323,97.686c-13.324,53.012-27.462,109.257-45.59,111.465c-18.746,2.283-34.276-53.749-49.711-109.434
	c-15.043-54.273-31.018-111.907-49.311-113.261c-18.869-1.397-36.346,57.183-53.731,115.457
	c-18.855,63.199-38.958,130.583-64.886,133.74c-26.99,3.287-49.489-63.788-71.975-130.824
	c-22.037-65.698-45.571-135.859-72.691-137.867c-28.164-2.085-54.425,69.482-80.716,141.136
	c-28.706,78.232-59.536,162.25-99.639,167.133c-42.236,5.143-77.719-78.44-113.484-162.688
	c-35.308-83.174-73.344-172.769-117.624-176.047c-46.498-3.443-90.313,88.509-134.629,181.518
	c-48.91,102.645-102.056,214.181-172.166,222.718c-74.872,9.117-138.863-101.354-204.297-214.316
	c-65.58-113.215-137.296-237.02-222.126-243.27c-0.149-0.011-0.298-0.022-0.448-0.031l-0.138-28.375
	c0.196,0.017,0.396,0.032,0.592,0.048c99.443,8.409,174.03,138.707,242.067,257.556c61.166,106.849,121.174,211.675,184.351,204.669
	c59.763-6.627,110.759-112.603,157.795-210.355c47.3-98.297,93.94-195.22,149-190.544c51.988,4.415,91.687,98.745,128.467,186.139
	c33.567,79.758,66.945,159.069,102.641,155.11c34.144-3.786,63.649-83.589,91.17-158.03
	c27.978-75.674,55.867-151.107,89.185-148.277c31.865,2.706,56.478,76.586,79.488,145.656
	c21.152,63.496,42.355,127.14,65.178,124.609c22.059-2.446,41.268-66.438,59.31-126.544
	c18.466-61.517,36.999-123.257,59.307-121.363c21.507,1.826,38.236,62.523,53.967,119.602
	c14.541,52.762,29.195,105.929,45.055,104.17c15.415-1.709,28.909-55.117,41.643-105.517
	c13.093-51.822,26.295-104.077,42.269-102.72c15.482,1.315,27.575,52.793,38.995,101.405c10.609,45.159,21.339,90.836,33.021,89.541
	c11.377-1.262,21.373-47.088,30.838-90.482c9.764-44.767,19.645-90.062,31.644-89.043c11.681,0.992,20.844,45.722,29.524,88.092
	c8.078,39.431,16.271,79.425,25.2,78.435c8.74-0.969,16.441-41.099,23.751-79.196c7.561-39.403,15.231-79.374,24.574-78.581
	c9.124,0.775,16.301,40.305,23.115,77.839c6.356,35.009,12.816,70.594,19.873,69.811V452.473z"/>
<polyline fill="none" stroke="#FFFFFF" stroke-width="2" stroke-miterlimit="10" points="1871.995,466.473 1864.301,467.557 
	1864.301,440.274 1859.081,440.818 1859.081,413.344 1853.787,413.7 1853.787,367.586 1848.418,367.619 1848.418,339.754 
	1842.972,339.587 1842.972,283.456 1834.654,282.592 1834.654,244.764 1826.153,243.464 1826.153,253.025 1820.382,252.213 
	1820.382,300.371 1814.524,299.906 1814.524,348.422 1808.579,348.314 1808.579,387.418 1802.543,387.603 1802.543,427.003 
	1796.416,427.491 1796.416,457.266 1790.195,457.989 1790.195,487.993 1777.462,489.942 1777.462,469.628 1770.945,470.466 
	1770.945,429.519 1764.325,430.046 1764.325,388.775 1757.6,388.981 1757.6,347.381 1743.822,347.129 1743.822,283.717 
	1736.764,283.07 1736.764,240.45 1729.59,239.441 1729.59,228.698 1722.297,227.583 1722.297,249.247 1714.881,248.295 
	1714.881,281.063 1707.34,280.371 1707.34,324.432 1699.671,324.104 1699.671,368.54 1691.87,368.588 1691.87,413.406 
	1683.933,413.843 1683.933,447.748 1675.858,448.49 1675.858,505.492 1667.64,506.749 1667.64,518.25 1659.276,519.633 
	1659.276,496.426 1650.762,497.625 1650.762,462.502 1637.7,463.862 1637.7,416.393 1624.276,417.133 1624.276,344.943 
	1615.119,344.775 1615.119,296.2 1605.789,295.573 1605.789,246.541 1596.282,245.437 1596.282,208.314 1586.594,206.832 
	1586.594,194.34 1576.717,192.708 1576.717,255.777 1566.648,254.73 1566.648,305.678 1556.379,305.113 1556.379,356.564 
	1545.907,356.5 1545.907,408.463 1535.223,408.922 1535.223,461.408 1524.322,462.409 1524.322,502.174 1513.197,503.604 
	1513.197,530.386 1501.842,532.124 1501.842,518.594 1490.248,520.227 1490.248,465.539 1478.408,466.626 1478.408,383.725 
	1466.315,383.948 1466.315,328.089 1453.96,327.712 1453.96,285.364 1441.334,284.515 1441.334,241.703 1428.429,240.361 
	1428.429,225.933 1415.235,224.4 1415.235,180.63 1401.743,178.567 1401.743,208.077 1387.941,206.304 1387.941,266 
	1373.82,264.878 1373.82,325.265 1359.368,324.824 1359.368,370.645 1344.573,370.737 1344.573,401.646 1329.424,402.111 
	1329.424,464.671 1313.906,465.907 1313.906,529.227 1298.007,531.271 1298.007,563.32 1281.712,565.814 1281.712,533.366 
	1247.875,537.717 1247.875,471.164 1230.301,472.563 1230.301,388.297 1212.266,388.629 1212.266,337.407 1193.752,337.069 
	1193.752,250.566 1174.74,249.055 1174.74,196.455 1155.21,194.186 1155.21,158.641 1135.14,155.818 1135.14,119.782 
	1114.508,116.375 1114.508,189.456 1093.289,186.991 1093.289,261.111 1071.458,259.643 1071.458,334.832 1048.989,334.421 
	1048.989,410.71 1025.852,411.419 1025.852,450.13 1002.018,451.444 1002.018,510.385 977.455,512.641 977.455,552.537 
	952.128,555.483 952.128,595.998 926.002,599.677 926.002,517.368 899.038,519.844 899.038,457.122 856.93,459.444 856.93,352.331 
	812.694,352.063 812.694,220.279 781.94,217.834 781.94,128.473 750.113,124.385 750.113,78.925 717.157,73.886 717.157,97.019 
	683.011,92.216 683.011,162.869 647.608,159.189 647.608,207.158 610.878,204.238 610.878,301.974 572.745,300.81 572.745,425.313 
	533.126,426.528 533.126,502.684 491.935,505.46 491.935,609.018 449.074,614.004 449.074,693.247 404.44,700.078 404.44,673.117 
	357.922,679.667 357.922,624.608 309.396,630.253 309.396,489.635 258.731,492.429 258.731,348.711 205.781,348.39 205.781,289.607 
	150.389,287.916 150.389,137.568 92.381,132.248 92.381,9.13 31.568,0.575 31.568,32.099 0.045,29.243 "/>
</svg>
