<svg width="155" height="46" viewBox="0 0 155 46" fill="none" xmlns="http://www.w3.org/2000/svg">
<path d="M149.259 0H5.74074C2.57022 0 0 2.57436 0 5.75V40.25C0 43.4256 2.57022 46 5.74074 46H149.259C152.43 46 155 43.4256 155 40.25V5.75C155 2.57436 152.43 0 149.259 0Z" fill="black"/>
<path d="M149.259 0.92C151.9 0.92 154.081 3.105 154.081 5.75V40.25C154.081 42.895 151.9 45.08 149.259 45.08H5.74074C3.1 45.08 0.918519 42.895 0.918519 40.25V5.75C0.918519 3.105 3.1 0.92 5.74074 0.92H149.259ZM149.259 0H5.74074C2.52593 0 0 2.645 0 5.75V40.25C0 43.47 2.52593 46 5.74074 46H149.259C152.359 46 155 43.47 155 40.25V5.75C155 2.645 152.359 0 149.259 0Z" fill="#A6A6A6"/>
<path d="M54.4222 11.73C54.4222 12.65 54.1926 13.455 53.6185 14.03C52.9296 14.72 52.1259 15.065 51.0926 15.065C50.0593 15.065 49.2556 14.72 48.5667 14.03C47.8778 13.34 47.5333 12.535 47.5333 11.5C47.5333 10.465 47.8778 9.66 48.5667 8.97C49.2556 8.28 50.0593 7.935 51.0926 7.935C51.6892 7.935 52.0622 8.07556 52.4704 8.28C52.9296 8.51 53.2741 8.74 53.5037 9.085L52.9296 9.66C52.4704 9.085 51.8963 8.855 51.0926 8.855C50.2889 8.855 49.7148 9.085 49.2556 9.66C48.6815 10.12 48.4519 10.81 48.4519 11.615C48.4519 12.42 48.6815 13.11 49.2556 13.57C49.8296 14.03 50.4037 14.375 51.0926 14.375C51.7815 14.375 52.4704 14.145 53.0444 13.57C53.3889 13.225 53.6185 12.765 53.6185 12.19H51.0926V11.385H54.4222C54.4222 11.615 54.4222 11.73 54.4222 11.96V11.73Z" fill="white"/>
<path d="M59.7037 8.855H56.6037V11.04H59.4741V11.845H56.6037V14.03H59.7037V14.835H55.6852V7.935H59.7037V8.855Z" fill="white"/>
<path d="M63.4926 14.95H62.5741V8.855H60.6222V8.05H65.3296V8.855H63.3778V14.95H63.4926Z" fill="white"/>
<path d="M68.7741 14.95V8.05H69.6926V14.95H68.7741Z" fill="white"/>
<path d="M73.5963 14.95H72.6778V8.855H70.7259V8.05H75.4333V8.855H73.4815V14.95H73.5963Z" fill="white"/>
<path d="M84.5037 14.03C83.8148 14.72 83.0111 15.065 81.9778 15.065C80.9444 15.065 80.1407 14.72 79.4519 14.03C78.763 13.34 78.4185 12.535 78.4185 11.5C78.4185 10.465 78.763 9.66 79.4519 8.97C80.1407 8.28 80.9444 7.935 81.9778 7.935C83.0111 7.935 83.8148 8.28 84.5037 8.97C85.1926 9.66 85.537 10.465 85.537 11.5C85.537 12.535 85.1926 13.34 84.5037 14.03ZM80.1407 13.455C80.6 13.915 81.2889 14.26 81.9778 14.26C82.6667 14.26 83.3556 14.03 83.8148 13.455C84.2741 12.995 84.6185 12.305 84.6185 11.5C84.6185 10.695 84.3889 10.005 83.8148 9.545C83.3556 9.085 82.6667 8.74 81.9778 8.74C81.2889 8.74 80.6 8.97 80.1407 9.545C79.6815 10.005 79.337 10.695 79.337 11.5C79.337 12.305 79.5667 12.995 80.1407 13.455Z" fill="white"/>
<path d="M86.8 14.95V8.05H87.8333L91.163 13.455V8.05H92.0815V14.95H91.163L87.6037 9.315V14.95H86.6852H86.8Z" fill="white"/>
<path d="M78.189 25.07C75.4334 25.07 73.252 27.14 73.252 30.015C73.252 32.89 75.4334 34.96 78.189 34.96C80.9446 34.96 83.126 32.89 83.126 30.015C83.126 27.14 80.9446 25.07 78.189 25.07ZM78.189 32.89C76.6964 32.89 75.4334 31.625 75.4334 29.9C75.4334 28.175 76.6964 26.91 78.189 26.91C79.6816 26.91 80.9446 28.06 80.9446 29.9C80.9446 31.74 79.6816 32.89 78.189 32.89ZM67.5112 25.07C64.7557 25.07 62.5742 27.14 62.5742 30.015C62.5742 32.89 64.7557 34.96 67.5112 34.96C70.2668 34.96 72.4483 32.89 72.4483 30.015C72.4483 27.14 70.2668 25.07 67.5112 25.07ZM67.5112 32.89C66.0186 32.89 64.7557 31.625 64.7557 29.9C64.7557 28.175 66.0186 26.91 67.5112 26.91C69.0038 26.91 70.2668 28.06 70.2668 29.9C70.2668 31.74 69.0038 32.89 67.5112 32.89ZM54.7668 26.565V28.635H59.7038C59.589 29.785 59.1297 30.705 58.5557 31.28C57.9816 31.855 56.7186 32.775 54.7668 32.775C51.6668 32.775 49.3705 30.36 49.3705 27.255C49.3705 24.15 51.7816 21.735 54.7668 21.735C57.752 21.735 57.6371 22.425 58.5557 23.23L60.0483 21.735C58.7853 20.585 57.1779 19.665 54.8816 19.665C50.7483 19.665 47.189 23.115 47.189 27.255C47.189 31.395 50.7483 34.845 54.8816 34.845C57.2954 34.845 58.8287 33.9966 60.1631 32.66C61.5409 31.28 62.0001 29.325 62.0001 27.83C62.0001 26.335 62.0001 26.91 62.0001 26.565H54.7668ZM106.893 28.175C106.433 27.025 105.285 25.07 102.759 25.07C100.233 25.07 98.1668 27.025 98.1668 30.015C98.1668 33.005 100.233 34.96 102.989 34.96C105.745 34.96 106.548 33.58 107.008 32.775L105.4 31.625C104.826 32.43 104.137 33.005 102.989 33.005C101.841 33.005 101.152 32.545 100.578 31.51L107.122 28.75L106.893 28.175ZM100.233 29.785C100.233 27.945 101.726 26.91 102.759 26.91C103.793 26.91 104.367 27.37 104.596 27.945L100.233 29.785ZM94.8372 34.5H97.0186V20.125H94.8372V34.5ZM91.3927 26.105C90.9334 25.53 90.0149 24.955 88.8668 24.955C86.4557 24.955 84.1594 27.14 84.1594 29.9C84.1594 32.66 86.3409 34.73 88.8668 34.73C91.3927 34.73 90.9334 34.155 91.3927 33.58V34.27C91.3927 36.11 90.3594 37.145 88.752 37.145C87.1446 37.145 86.5705 36.225 86.3409 35.42L84.5038 36.225C85.0779 37.49 86.4557 39.1 88.8668 39.1C91.2779 39.1 93.4594 37.605 93.4594 34.04V25.3H91.3927V26.105ZM88.8668 32.89C87.3742 32.89 86.1112 31.625 86.1112 29.9C86.1112 28.175 87.3742 26.91 88.8668 26.91C90.3594 26.91 91.5075 28.175 91.5075 29.9C91.5075 31.625 90.3594 32.89 88.8668 32.89ZM116.882 20.125H111.715V34.5H113.896V29.095H116.882C119.293 29.095 121.589 27.37 121.589 24.61C121.589 21.85 119.293 20.125 116.882 20.125ZM116.996 27.025H113.896V22.08H116.996C118.604 22.08 119.522 23.46 119.522 24.495C119.522 25.53 118.604 27.025 116.996 27.025ZM130.2 24.955C128.593 24.955 126.985 25.645 126.411 27.14L128.363 27.945C128.822 27.14 129.511 26.91 130.315 26.91C131.119 26.91 132.496 27.6 132.611 28.75C132.267 28.75 131.348 28.29 130.43 28.29C128.363 28.29 126.296 29.44 126.296 31.51C126.296 33.58 128.019 34.73 129.856 34.73C131.693 34.73 132.037 34.04 132.611 33.35V34.5H134.678V28.98C134.678 26.45 132.726 24.955 130.315 24.955H130.2ZM129.97 32.89C129.282 32.89 128.248 32.545 128.248 31.625C128.248 30.705 129.511 30.13 130.545 30.13C131.578 30.13 131.922 30.36 132.496 30.59C132.382 31.97 131.233 32.89 129.97 32.89ZM142.026 25.3L139.615 31.51L137.089 25.3H134.793L138.582 34.04L136.4 38.87H138.582L144.437 25.3H142.026ZM122.737 34.5H124.919V20.125H122.737V34.5Z" fill="white"/>
<path d="M23.7667 22.31L11.5963 35.305C11.9407 36.685 13.2037 37.72 14.8111 37.72C16.4185 37.72 15.9593 37.605 16.5333 37.26L30.3111 29.325L23.8815 22.31H23.7667Z" fill="#EA4335"/>
<path d="M36.1667 20.125L30.1963 16.675L23.537 22.655L30.1963 29.325L36.0519 25.875C37.0852 25.3 37.7741 24.265 37.7741 23C37.7741 21.735 37.0852 20.7 36.0519 20.125H36.1667Z" fill="#FBBC04"/>
<path d="M11.5963 10.695C11.5963 10.925 11.5963 11.27 11.5963 11.5V34.5C11.5963 34.845 11.5963 35.075 11.5963 35.305L24.2259 22.655L11.5963 10.695Z" fill="#4285F4"/>
<path d="M23.8815 23L30.1963 16.675L16.4185 8.74C15.9593 8.395 15.3852 8.28 14.6963 8.28C13.2037 8.28 11.8259 9.315 11.4815 10.695L23.7667 23H23.8815Z" fill="#34A853"/>
</svg>
