<svg width="137" height="46" viewBox="0 0 137 46" fill="none" xmlns="http://www.w3.org/2000/svg">
<g clip-path="url(#clip0_1106_1535)">
<path d="M126.09 0.000150253L10.916 0.000149565C10.4962 0.000149563 10.0814 0.00014956 9.66266 0.00244956C9.31216 0.00474956 8.96445 0.0114311 8.61058 0.0170546C7.84181 0.0261416 7.07486 0.0940772 6.31637 0.220271C5.55895 0.349212 4.82526 0.592303 4.14011 0.941321C3.45579 1.29329 2.83052 1.75064 2.28696 2.29678C1.74055 2.84138 1.28508 3.47087 0.938051 4.16103C0.590067 4.84982 0.348774 5.58793 0.222506 6.34985C0.0950368 7.11081 0.0264446 7.88055 0.0173448 8.65215C0.00672034 9.00474 0.00559837 9.3585 -5.7966e-08 9.71114L-2.16631e-07 36.2925C0.0055982 36.6496 0.00672018 36.9955 0.0173446 37.3527C0.0264472 38.1243 0.0950394 38.894 0.222506 39.6549C0.348425 40.4173 0.589732 41.1558 0.93805 41.8449C1.28492 42.5328 1.74046 43.1597 2.28696 43.7013C2.82846 44.2499 3.45414 44.7075 4.14011 45.0568C4.82525 45.4068 5.55887 45.6513 6.31637 45.7822C7.07498 45.9074 7.84186 45.9754 8.61058 45.9855C8.96445 45.9934 9.31216 45.9978 9.66266 45.9978C10.0814 46.0001 10.4962 46.0001 10.916 46.0001L126.09 46.0001C126.502 46.0001 126.92 46.0001 127.331 45.9978C127.68 45.9978 128.038 45.9934 128.387 45.9855C129.154 45.9759 129.919 45.9079 130.676 45.7822C131.436 45.6504 132.173 45.4059 132.861 45.0568C133.546 44.7073 134.172 44.2497 134.713 43.7013C135.258 43.1576 135.714 42.5311 136.065 41.8449C136.411 41.1553 136.65 40.4168 136.774 39.6549C136.902 38.8939 136.973 38.1244 136.987 37.3527C136.991 36.9955 136.991 36.6496 136.991 36.2925C137 35.8747 137 35.4592 137 35.0347L137 10.9667C137 10.5456 137 10.1278 136.991 9.71114C136.991 9.3585 136.991 9.00474 136.987 8.65211C136.973 7.88044 136.902 7.11087 136.774 6.34981C136.65 5.58832 136.411 4.85028 136.065 4.16099C135.359 2.77763 134.238 1.65158 132.861 0.941218C132.173 0.593053 131.436 0.350027 130.676 0.220168C129.919 0.0934185 129.154 0.0254592 128.387 0.0168943C128.038 0.0112823 127.68 0.00454326 127.331 0.00230076C126.92 7.57586e-07 126.502 0.000150255 126.09 0.000150253Z" fill="#A6A6A6"/>
<path d="M9.66827 44.9937C9.31945 44.9937 8.97906 44.9893 8.63298 44.9814C7.91604 44.9721 7.20077 44.9094 6.49305 44.7939C5.83314 44.6797 5.19386 44.4674 4.5963 44.1638C4.00422 43.8628 3.46419 43.468 2.99691 42.9947C2.52287 42.527 2.1282 41.9845 1.82856 41.3887C1.52561 40.7891 1.31596 40.1464 1.20689 39.4829C1.08911 38.7701 1.02539 38.0493 1.01627 37.3267C1.00901 37.0842 0.999512 36.2766 0.999512 36.2766L0.999512 9.71099C0.999512 9.71099 1.00963 8.91587 1.01633 8.68227C1.02506 7.96085 1.08841 7.24115 1.20584 6.52939C1.31511 5.86414 1.52492 5.21956 1.82803 4.61797C2.12657 4.02263 2.51905 3.47974 2.99024 3.01033C3.4609 2.53646 4.00265 2.13969 4.59574 1.83449C5.19192 1.53191 5.82999 1.32104 6.48858 1.20896C7.19862 1.09231 7.91637 1.02924 8.63579 1.02029L9.66884 1.00625L127.326 1.00625L128.371 1.02085C129.084 1.02936 129.795 1.09187 130.499 1.20783C131.164 1.32132 131.809 1.53366 132.412 1.83786C133.6 2.45293 134.567 3.42604 135.176 4.62078C135.475 5.21821 135.681 5.85753 135.789 6.51704C135.908 7.23464 135.975 7.96 135.988 8.68733C135.992 9.01301 135.992 9.36284 135.992 9.71099C136.001 10.1422 136.001 10.5527 136.001 10.9665L136.001 35.0345C136.001 35.4523 136.001 35.86 135.992 36.271C135.992 36.645 135.992 36.9876 135.987 37.3402C135.974 38.0545 135.908 38.7669 135.791 39.4717C135.685 40.1399 135.476 40.7876 135.173 41.3922C134.871 41.9815 134.479 42.5193 134.01 42.9857C133.543 43.4616 133.002 43.8586 132.408 44.1616C131.807 44.4675 131.163 44.6806 130.499 44.7939C129.791 44.91 129.076 44.9727 128.359 44.9814C128.023 44.9893 127.672 44.9937 127.331 44.9937L126.09 44.996L9.66827 44.9937Z" fill="black"/>
<path d="M28.357 23.3458C28.3694 22.3859 28.6232 21.4448 29.0949 20.6099C29.5666 19.7751 30.2409 19.0737 31.055 18.5709C30.5378 17.829 29.8555 17.2184 29.0623 16.7877C28.2691 16.3569 27.3869 16.1179 26.4856 16.0896C24.5631 15.8869 22.6993 17.2451 21.7196 17.2451C20.721 17.2451 19.2126 16.1097 17.5884 16.1433C16.5378 16.1774 15.5138 16.4843 14.6164 17.034C13.719 17.5838 12.9786 18.3577 12.4675 19.2803C10.2533 23.131 11.9049 28.7902 14.0259 31.9028C15.087 33.427 16.3273 35.1295 17.9501 35.0691C19.5381 35.003 20.1311 34.052 22.048 34.052C23.9471 34.052 24.5035 35.0691 26.1592 35.0307C27.8632 35.0029 28.9368 33.4998 29.9608 31.9612C30.7233 30.8752 31.31 29.6749 31.6992 28.4048C30.7092 27.9842 29.8644 27.2802 29.2701 26.3806C28.6757 25.481 28.3582 24.4255 28.357 23.3458Z" fill="white"/>
<path d="M25.2296 14.0425C26.1587 12.9222 26.6164 11.4822 26.5056 10.0283C25.0861 10.1781 23.7749 10.8595 22.8333 11.9369C22.3729 12.4632 22.0203 13.0755 21.7956 13.7388C21.5709 14.4021 21.4786 15.1033 21.5239 15.8025C22.2339 15.8098 22.9363 15.6552 23.5782 15.3504C24.22 15.0455 24.7847 14.5984 25.2296 14.0425Z" fill="white"/>
<path d="M48.4304 31.2106L43.0113 31.2106L41.7099 35.0705L39.4146 35.0705L44.5475 20.7898L46.9322 20.7898L52.0652 35.0705L49.7307 35.0705L48.4304 31.2106ZM43.5725 29.4294L47.8681 29.4294L45.7505 23.1651L45.6913 23.1651L43.5725 29.4294Z" fill="white"/>
<path d="M63.1506 29.8652C63.1506 33.1007 61.4266 35.1794 58.8249 35.1794C58.1658 35.2141 57.5104 35.0616 56.9336 34.7394C56.3568 34.4173 55.882 33.9385 55.5636 33.3578L55.5143 33.3578L55.5143 38.5149L53.3867 38.5149L53.3867 24.6587L55.4462 24.6587L55.4462 26.3905L55.4853 26.3905C55.8184 25.8126 56.3012 25.3363 56.8824 25.0122C57.4636 24.6881 58.1214 24.5283 58.7858 24.5498C61.4165 24.5498 63.1506 26.6387 63.1506 29.8652ZM60.9637 29.8652C60.9637 27.7572 59.8792 26.3714 58.2245 26.3714C56.5989 26.3714 55.5054 27.7864 55.5054 29.8652C55.5054 31.963 56.5989 33.368 58.2245 33.368C59.8792 33.368 60.9637 31.9922 60.9637 29.8652Z" fill="white"/>
<path d="M74.5588 29.8652C74.5588 33.1007 72.8348 35.1794 70.2331 35.1794C69.574 35.2141 68.9186 35.0616 68.3418 34.7394C67.7651 34.4173 67.2902 33.9385 66.9718 33.3578L66.9225 33.3578L66.9225 38.5149L64.7949 38.5149L64.7949 24.6587L66.8543 24.6587L66.8543 26.3905L66.8935 26.3905C67.2266 25.8126 67.7094 25.3363 68.2906 25.0122C68.8718 24.6881 69.5295 24.5283 70.1939 24.5498C72.8247 24.5498 74.5588 26.6387 74.5588 29.8652ZM72.3719 29.8652C72.3719 27.7572 71.2874 26.3714 69.6327 26.3714C68.0071 26.3714 66.9136 27.7864 66.9136 29.8652C66.9136 31.963 68.0071 33.368 69.6327 33.368C71.2874 33.368 72.3719 31.9922 72.3719 29.8652Z" fill="white"/>
<path d="M82.0989 31.0916C82.2565 32.5077 83.6261 33.4375 85.4977 33.4375C87.291 33.4375 88.5813 32.5077 88.5813 31.2308C88.5813 30.1223 87.8031 29.4586 85.9606 29.0038L84.1181 28.5579C81.5074 27.9245 80.2955 26.6981 80.2955 24.7081C80.2955 22.2441 82.4332 20.5517 85.4686 20.5517C88.4728 20.5517 90.5322 22.2441 90.6016 24.7081L88.4538 24.7081C88.3252 23.2829 87.1524 22.4227 85.4384 22.4227C83.7245 22.4227 82.5517 23.2931 82.5517 24.5599C82.5517 25.5695 83.3007 26.1636 85.1332 26.6184L86.6996 27.0047C89.6165 27.6976 90.8285 28.8746 90.8285 30.9634C90.8285 33.6352 88.7098 35.3085 85.34 35.3085C82.1872 35.3085 80.0584 33.6745 79.9209 31.0914L82.0989 31.0916Z" fill="white"/>
<path d="M95.4207 22.1948L95.4207 24.6587L97.3918 24.6587L97.3918 26.3512L95.4207 26.3512L95.4207 32.0911C95.4207 32.9828 95.8154 33.3983 96.6818 33.3983C96.9158 33.3942 97.1494 33.3777 97.3817 33.3488L97.3817 35.0312C96.9921 35.1043 96.5962 35.1374 96.1999 35.13C94.1014 35.13 93.283 34.3382 93.283 32.319L93.283 26.3512L91.7759 26.3512L91.7759 24.6587L93.283 24.6587L93.283 22.1948L95.4207 22.1948Z" fill="white"/>
<path d="M98.5332 29.8652C98.5332 26.5893 100.454 24.5307 103.449 24.5307C106.455 24.5307 108.366 26.5892 108.366 29.8652C108.366 33.1501 106.465 35.1997 103.449 35.1997C100.435 35.1997 98.5332 33.1501 98.5332 29.8652ZM106.198 29.8652C106.198 27.618 105.173 26.2917 103.449 26.2917C101.725 26.2917 100.701 27.6281 100.701 29.8652C100.701 32.1214 101.725 33.4376 103.449 33.4376C105.173 33.4376 106.198 32.1214 106.198 29.8652Z" fill="white"/>
<path d="M110.121 24.6587L112.15 24.6587L112.15 26.4309L112.199 26.4309C112.336 25.8774 112.659 25.3883 113.113 25.0457C113.567 24.7031 114.125 24.528 114.692 24.5498C114.937 24.5489 115.182 24.5757 115.421 24.6295L115.421 26.6285C115.112 26.5335 114.789 26.4899 114.465 26.4994C114.156 26.4868 113.848 26.5415 113.562 26.6599C113.276 26.7782 113.019 26.9573 112.808 27.1849C112.598 27.4124 112.438 27.6831 112.342 27.9783C112.245 28.2734 112.213 28.5861 112.248 28.8949L112.248 35.0705L110.121 35.0705L110.121 24.6587Z" fill="white"/>
<path d="M125.231 32.0124C124.944 33.9025 123.112 35.1996 120.767 35.1996C117.752 35.1996 115.88 33.1703 115.88 29.9146C115.88 26.6488 117.762 24.5307 120.678 24.5307C123.546 24.5307 125.349 26.5095 125.349 29.6664L125.349 30.3986L118.028 30.3986L118.028 30.5278C117.994 30.911 118.042 31.297 118.168 31.6602C118.294 32.0234 118.496 32.3555 118.76 32.6344C119.023 32.9134 119.343 33.1327 119.698 33.278C120.052 33.4232 120.434 33.491 120.817 33.4769C121.319 33.5242 121.824 33.4072 122.255 33.1434C122.686 32.8795 123.021 32.4829 123.21 32.0124L125.231 32.0124ZM118.038 28.905L123.22 28.905C123.239 28.5604 123.187 28.2157 123.068 27.8923C122.948 27.5689 122.763 27.2739 122.524 27.0257C122.285 26.7776 121.998 26.5817 121.68 26.4504C121.363 26.319 121.021 26.255 120.678 26.2624C120.331 26.2604 119.988 26.3272 119.667 26.4592C119.347 26.5911 119.055 26.7856 118.81 27.0312C118.564 27.2769 118.37 27.569 118.237 27.8906C118.105 28.2122 118.037 28.5569 118.038 28.905Z" fill="white"/>
<path d="M43.3064 10.0407C43.7524 10.0085 44.2 10.0762 44.6169 10.2388C45.0338 10.4015 45.4095 10.655 45.717 10.9812C46.0245 11.3074 46.2561 11.698 46.3951 12.125C46.5341 12.552 46.577 13.0046 46.5207 13.4502C46.5207 15.6424 45.3412 16.9025 43.3064 16.9025L40.8389 16.9025L40.8389 10.0407L43.3064 10.0407ZM41.8999 15.9321L43.1879 15.9321C43.5066 15.9512 43.8256 15.8987 44.1216 15.7784C44.4176 15.6581 44.6831 15.473 44.8989 15.2366C45.1147 15.0002 45.2753 14.7185 45.3691 14.4119C45.4628 14.1053 45.4872 13.7815 45.4407 13.4642C45.4839 13.1481 45.4569 12.8264 45.3618 12.522C45.2666 12.2177 45.1056 11.9382 44.8903 11.7037C44.675 11.4692 44.4107 11.2854 44.1164 11.1655C43.822 11.0457 43.505 10.9927 43.1879 11.0103L41.8999 11.0103L41.8999 15.9321Z" fill="white"/>
<path d="M47.7195 14.311C47.6871 13.9707 47.7259 13.6273 47.8333 13.303C47.9407 12.9786 48.1145 12.6803 48.3434 12.4274C48.5723 12.1744 48.8513 11.9722 49.1625 11.8339C49.4738 11.6956 49.8103 11.6242 50.1507 11.6242C50.491 11.6242 50.8276 11.6956 51.1388 11.8339C51.4501 11.9722 51.7291 12.1744 51.958 12.4274C52.1869 12.6803 52.3606 12.9786 52.4681 13.303C52.5755 13.6273 52.6143 13.9707 52.5819 14.311C52.6149 14.6517 52.5766 14.9955 52.4694 15.3204C52.3623 15.6453 52.1886 15.9441 51.9597 16.1976C51.7307 16.451 51.4515 16.6536 51.1399 16.7922C50.8284 16.9308 50.4914 17.0024 50.1507 17.0024C49.8099 17.0024 49.473 16.9308 49.1614 16.7922C48.8499 16.6536 48.5706 16.451 48.3417 16.1976C48.1127 15.9441 47.9391 15.6453 47.8319 15.3204C47.7248 14.9955 47.6865 14.6517 47.7195 14.311ZM51.5354 14.311C51.5354 13.1885 51.0334 12.5321 50.1524 12.5321C49.268 12.5321 48.7705 13.1885 48.7705 14.311C48.7705 15.4425 49.268 16.0938 50.1524 16.0938C51.0334 16.0938 51.5354 15.438 51.5354 14.311Z" fill="white"/>
<path d="M59.0452 16.9024L57.9898 16.9024L56.9243 13.0885L56.8438 13.0885L55.7828 16.9024L54.7374 16.9024L53.3164 11.724L54.3484 11.724L55.2719 15.6754L55.3479 15.6754L56.4078 11.724L57.3838 11.724L58.4437 15.6754L58.5242 15.6754L59.4433 11.724L60.4607 11.724L59.0452 16.9024Z" fill="white"/>
<path d="M61.6558 11.724L62.6352 11.724L62.6352 12.5467L62.7112 12.5467C62.8402 12.2512 63.0577 12.0035 63.3335 11.8382C63.6092 11.6728 63.9295 11.5979 64.2496 11.6241C64.5005 11.6051 64.7523 11.6431 64.9866 11.7352C65.2208 11.8274 65.4314 11.9712 65.6028 12.1562C65.7741 12.3412 65.9019 12.5625 65.9765 12.8038C66.0512 13.0451 66.0708 13.3002 66.034 13.5501L66.034 16.9024L65.0166 16.9024L65.0166 13.8067C65.0166 12.9746 64.6566 12.5607 63.9041 12.5607C63.7338 12.5527 63.5638 12.5819 63.4058 12.6461C63.2477 12.7103 63.1053 12.808 62.9884 12.9327C62.8715 13.0573 62.7828 13.2059 62.7284 13.3682C62.674 13.5305 62.6551 13.7027 62.6732 13.873L62.6732 16.9024L61.6558 16.9024L61.6558 11.724Z" fill="white"/>
<path d="M67.6548 9.70255L68.6722 9.70255L68.6722 16.9024L67.6548 16.9024L67.6548 9.70255Z" fill="white"/>
<path d="M70.0867 14.311C70.0543 13.9707 70.0931 13.6273 70.2005 13.3029C70.308 12.9785 70.4818 12.6803 70.7107 12.4273C70.9396 12.1743 71.2187 11.9722 71.5299 11.8338C71.8412 11.6955 72.1778 11.6241 72.5181 11.6241C72.8585 11.6241 73.1951 11.6955 73.5063 11.8338C73.8176 11.9722 74.0966 12.1743 74.3256 12.4273C74.5545 12.6803 74.7283 12.9785 74.8357 13.3029C74.9432 13.6273 74.982 13.9707 74.9496 14.311C74.9826 14.6517 74.9442 14.9955 74.837 15.3204C74.7299 15.6453 74.5562 15.9441 74.3272 16.1976C74.0982 16.451 73.819 16.6536 73.5074 16.7922C73.1959 16.9308 72.8589 17.0024 72.5181 17.0024C72.1774 17.0024 71.8404 16.9308 71.5288 16.7922C71.2173 16.6536 70.938 16.451 70.709 16.1976C70.4801 15.9441 70.3064 15.6453 70.1992 15.3204C70.092 14.9955 70.0537 14.6517 70.0867 14.311ZM73.9025 14.311C73.9025 13.1885 73.4005 12.5321 72.5195 12.5321C71.6352 12.5321 71.1377 13.1885 71.1377 14.311C71.1377 15.4425 71.6352 16.0938 72.5195 16.0938C73.4005 16.0938 73.9025 15.438 73.9025 14.311Z" fill="white"/>
<path d="M76.0205 15.438C76.0205 14.5058 76.7115 13.9685 77.9379 13.8921L79.3344 13.8112L79.3344 13.3643C79.3344 12.8173 78.9744 12.5085 78.2789 12.5085C77.711 12.5085 77.3174 12.718 77.2045 13.0841L76.2195 13.0841C76.3235 12.1946 77.1564 11.6241 78.3259 11.6241C79.6184 11.6241 80.3473 12.2704 80.3473 13.3643L80.3473 16.9024L79.3679 16.9024L79.3679 16.1747L79.2874 16.1747C79.124 16.4357 78.8946 16.6485 78.6225 16.7914C78.3505 16.9342 78.0456 17.002 77.7389 16.9877C77.5225 17.0104 77.3038 16.9872 77.0968 16.9197C76.8899 16.8522 76.6993 16.7418 76.5374 16.5958C76.3755 16.4498 76.2459 16.2713 76.1568 16.0719C76.0678 15.8725 76.0214 15.6565 76.0205 15.438ZM79.3344 14.9955L79.3344 14.5626L78.0755 14.6434C77.3655 14.6911 77.0435 14.9337 77.0435 15.3902C77.0435 15.8563 77.446 16.1275 77.9995 16.1275C78.1616 16.144 78.3254 16.1275 78.4812 16.0791C78.6369 16.0307 78.7813 15.9514 78.9058 15.8458C79.0304 15.7401 79.1325 15.6104 79.2061 15.4644C79.2797 15.3183 79.3234 15.1588 79.3344 14.9955Z" fill="white"/>
<path d="M81.6846 14.311C81.6846 12.6747 82.522 11.6381 83.8245 11.6381C84.1467 11.6232 84.4664 11.7007 84.7464 11.8616C85.0263 12.0225 85.2549 12.2601 85.4054 12.5466L85.4814 12.5466L85.4814 9.70255L86.4988 9.70255L86.4988 16.9024L85.5239 16.9024L85.5239 16.0843L85.4434 16.0843C85.2813 16.3689 85.0448 16.6035 84.7594 16.7628C84.474 16.922 84.1507 16.9998 83.8245 16.9877C82.513 16.9878 81.6846 15.9512 81.6846 14.311ZM82.7356 14.311C82.7356 15.4093 83.251 16.0703 84.113 16.0703C84.9705 16.0703 85.5005 15.3998 85.5005 14.3155C85.5005 13.2362 84.9649 12.5562 84.113 12.5562C83.2565 12.5562 82.7356 13.2216 82.7356 14.311Z" fill="white"/>
<path d="M90.7083 14.311C90.6759 13.9707 90.7146 13.6273 90.8221 13.303C90.9295 12.9786 91.1032 12.6803 91.3321 12.4274C91.5611 12.1744 91.8401 11.9722 92.1513 11.8339C92.4625 11.6956 92.7991 11.6242 93.1395 11.6242C93.4798 11.6242 93.8164 11.6956 94.1276 11.8339C94.4388 11.9722 94.7178 12.1744 94.9468 12.4274C95.1757 12.6803 95.3494 12.9786 95.4568 13.303C95.5643 13.6273 95.603 13.9707 95.5706 14.311C95.6037 14.6517 95.5654 14.9955 95.4582 15.3204C95.3511 15.6453 95.1774 15.9441 94.9484 16.1976C94.7195 16.451 94.4403 16.6536 94.1287 16.7922C93.8172 16.9308 93.4802 17.0024 93.1395 17.0024C92.7987 17.0024 92.4617 16.9308 92.1502 16.7922C91.8386 16.6536 91.5594 16.451 91.3304 16.1976C91.1015 15.9441 90.9278 15.6453 90.8207 15.3204C90.7135 14.9955 90.6753 14.6517 90.7083 14.311ZM94.5241 14.311C94.5241 13.1885 94.0221 12.5321 93.1411 12.5321C92.2568 12.5321 91.7593 13.1885 91.7593 14.311C91.7593 15.4425 92.2568 16.0938 93.1411 16.0938C94.0221 16.0938 94.5241 15.438 94.5241 14.311Z" fill="white"/>
<path d="M96.936 11.724L97.9154 11.724L97.9154 12.5467L97.9915 12.5467C98.1204 12.2512 98.338 12.0035 98.6137 11.8382C98.8895 11.6728 99.2098 11.5979 99.5299 11.6241C99.7807 11.6051 100.033 11.6431 100.267 11.7352C100.501 11.8274 100.712 11.9712 100.883 12.1562C101.054 12.3412 101.182 12.5625 101.257 12.8038C101.331 13.0451 101.351 13.3002 101.314 13.5501L101.314 16.9024L100.297 16.9024L100.297 13.8067C100.297 12.9746 99.9369 12.5607 99.1844 12.5607C99.0141 12.5527 98.8441 12.5819 98.686 12.6461C98.528 12.7103 98.3856 12.808 98.2687 12.9327C98.1518 13.0573 98.0631 13.2059 98.0087 13.3682C97.9542 13.5305 97.9354 13.7027 97.9535 13.873L97.9535 16.9024L96.936 16.9024L96.936 11.724Z" fill="white"/>
<path d="M107.063 10.4348L107.063 11.7476L108.18 11.7476L108.18 12.6085L107.063 12.6085L107.063 15.2712C107.063 15.8136 107.286 16.0511 107.792 16.0511C107.922 16.0507 108.051 16.0429 108.18 16.0276L108.18 16.8788C107.997 16.9117 107.812 16.9291 107.627 16.931C106.495 16.931 106.044 16.5312 106.044 15.5329L106.044 12.6084L105.226 12.6084L105.226 11.7476L106.044 11.7476L106.044 10.4348L107.063 10.4348Z" fill="white"/>
<path d="M109.57 9.70255L110.578 9.70255L110.578 12.5562L110.659 12.5562C110.794 12.258 111.018 12.0089 111.299 11.8429C111.58 11.6769 111.906 11.6021 112.231 11.6286C112.48 11.6149 112.73 11.6568 112.961 11.7511C113.193 11.8455 113.401 11.99 113.57 12.1744C113.74 12.3588 113.867 12.5785 113.942 12.8179C114.018 13.0572 114.039 13.3103 114.006 13.5591L114.006 16.9024L112.988 16.9024L112.988 13.8112C112.988 12.9841 112.604 12.5652 111.885 12.5652C111.71 12.5508 111.535 12.5749 111.37 12.6359C111.205 12.697 111.056 12.7934 110.932 12.9184C110.809 13.0435 110.714 13.1941 110.654 13.3599C110.595 13.5256 110.572 13.7025 110.587 13.878L110.587 16.9024L109.57 16.9024L109.57 9.70255Z" fill="white"/>
<path d="M119.939 15.5042C119.8 15.9775 119.501 16.3869 119.092 16.6607C118.684 16.9346 118.193 17.0555 117.705 17.0024C117.365 17.0114 117.028 16.946 116.716 16.8109C116.404 16.6757 116.125 16.474 115.898 16.2197C115.671 15.9654 115.503 15.6646 115.403 15.3382C115.304 15.0118 115.277 14.6676 115.323 14.3295C115.278 13.9904 115.306 13.6455 115.405 13.3181C115.504 12.9907 115.672 12.6886 115.897 12.432C116.123 12.1755 116.4 11.9706 116.711 11.8312C117.022 11.6918 117.36 11.6212 117.7 11.6241C119.135 11.6241 120 12.6085 120 14.2346L120 14.5912L116.36 14.5912L116.36 14.6485C116.344 14.8385 116.368 15.0298 116.429 15.2101C116.491 15.3903 116.59 15.5556 116.719 15.6953C116.849 15.8349 117.006 15.9459 117.18 16.0211C117.355 16.0963 117.543 16.1341 117.733 16.132C117.976 16.1613 118.223 16.1173 118.441 16.0055C118.659 15.8937 118.84 15.7192 118.959 15.5042L119.939 15.5042ZM116.36 13.8354L118.964 13.8354C118.976 13.6616 118.953 13.487 118.895 13.3229C118.836 13.1588 118.744 13.0087 118.625 12.8824C118.505 12.756 118.361 12.6562 118.201 12.5893C118.04 12.5224 117.868 12.4899 117.695 12.4939C117.519 12.4917 117.344 12.5249 117.181 12.5915C117.018 12.6581 116.87 12.7569 116.746 12.8819C116.621 13.0069 116.523 13.1557 116.457 13.3194C116.39 13.4832 116.357 13.6586 116.36 13.8354Z" fill="white"/>
</g>
<defs>
<clipPath id="clip0_1106_1535">
<rect width="137" height="46" fill="white"/>
</clipPath>
</defs>
</svg>
