<?xml version="1.0" encoding="UTF-8"?>
<svg id="Layer_2" data-name="Layer 2" xmlns="http://www.w3.org/2000/svg" xmlns:xlink="http://www.w3.org/1999/xlink" viewBox="0 0 1872.31 706.98">
  <defs>
    <style>
      .cls-1 {
        fill: #fff;
      }

      .cls-2 {
        fill: url(#linear-gradient);
      }
    </style>
    <linearGradient id="linear-gradient" x1="936.26" y1="74.46" x2="936.26" y2="560.98" gradientTransform="translate(0 706.84) scale(1 -1)" gradientUnits="userSpaceOnUse">
      <stop offset="0" stop-color="#ff276a"/>
      <stop offset="1" stop-color="#e557ff"/>
    </linearGradient>
  </defs>
  <g id="Layer_1-2" data-name="Layer 1">
    <path class="cls-2" d="M1872.27,455.89c-8.33,1.02-15.17-36.49-21.9-73.41-6.5-35.67-13.34-73.2-21.09-73.77-7.91-.59-15.16,37.34-22.3,74.69-7.66,40.09-15.74,82.36-26.03,83.61-10.55,1.28-19.22-40.86-27.78-82.46-8.28-40.27-17.02-82.73-26.95-83.47-10.16-.75-19.49,42.23-28.7,84.66-9.91,45.65-20.39,93.92-33.78,95.55-13.8,1.68-25.16-46.46-36.41-94.11-10.91-46.21-22.44-95.08-35.61-96.06-13.52-1-25.98,48.58-38.32,97.69-13.32,53.01-27.46,109.26-45.59,111.46-18.75,2.28-34.28-53.75-49.71-109.43-15.04-54.27-31.02-111.91-49.31-113.26-18.87-1.4-36.35,57.18-53.73,115.46-18.85,63.2-38.96,130.58-64.89,133.74-26.99,3.29-49.49-63.79-71.97-130.82-22.04-65.7-45.57-135.86-72.69-137.87-28.16-2.09-54.43,69.48-80.72,141.14-28.71,78.23-59.54,162.25-99.64,167.13-42.24,5.14-77.72-78.44-113.48-162.69-35.31-83.17-73.34-172.77-117.62-176.05-46.5-3.44-90.31,88.51-134.63,181.52-48.91,102.64-102.06,214.18-172.17,222.72-74.87,9.12-138.86-101.35-204.3-214.32C157.38,304.32,85.66,180.52.83,174.27c-.15-.01-.3-.02-.45-.03l-.14-28.38c.2.02.4.03.59.05,99.44,8.41,174.03,138.71,242.07,257.56,61.17,106.85,121.17,211.67,184.35,204.67,59.76-6.63,110.76-112.6,157.79-210.35,47.3-98.3,93.94-195.22,149-190.54,51.99,4.41,91.69,98.74,128.47,186.14,33.57,79.76,66.95,159.07,102.64,155.11,34.14-3.79,63.65-83.59,91.17-158.03,27.98-75.67,55.87-151.11,89.19-148.28,31.86,2.71,56.48,76.59,79.49,145.66,21.15,63.5,42.35,127.14,65.18,124.61,22.06-2.45,41.27-66.44,59.31-126.54,18.47-61.52,37-123.26,59.31-121.36,21.51,1.83,38.24,62.52,53.97,119.6,14.54,52.76,29.19,105.93,45.06,104.17,15.42-1.71,28.91-55.12,41.64-105.52,13.09-51.82,26.3-104.08,42.27-102.72,15.48,1.32,27.57,52.79,38.99,101.4,10.61,45.16,21.34,90.84,33.02,89.54,11.38-1.26,21.37-47.09,30.84-90.48,9.76-44.77,19.65-90.06,31.64-89.04,11.68.99,20.84,45.72,29.52,88.09,8.08,39.43,16.27,79.42,25.2,78.43,8.74-.97,16.44-41.1,23.75-79.2,7.56-39.4,15.23-79.37,24.57-78.58,9.12.77,16.3,40.3,23.11,77.84,6.36,35.01,12.82,70.59,19.87,69.81v8h0Z"/>
    <path class="cls-1" d="M1872.31,470.18s-7.69,1.09-7.69,1.09c0,0-.34.05-.34.05,0,0,0-.34,0-.34,0,0-.01-27.28-.01-27.28,0,0,.34.31.34.31,0,0-5.22.55-5.22.55,0,0-.34.04-.34.04,0,0,0-.35,0-.35,0,0-.01-27.47-.01-27.47,0,0,.34.32.34.32l-5.29.36s-.35.02-.35.02c0,0,0-.35,0-.35,0,0-.02-46.11-.02-46.11,0,0,.35.35.35.35,0,0-5.37.04-5.37.04,0,0-.35,0-.35,0,0,0,0-.35,0-.35,0,0-.01-27.86-.01-27.86l.35.36-5.45-.16h-.35s0-.36,0-.36c0,0-.03-56.13-.03-56.13,0,0,.35.39.35.39,0,0-8.32-.86-8.32-.86,0,0-.35-.04-.35-.04v-.35s-.02-37.83-.02-37.83c0,0,.35.41.35.41l-8.5-1.3s.48-.41.48-.41c0,0,0,9.56,0,9.56,0,0,0,.48,0,.48,0,0-.48-.07-.48-.07,0,0-5.77-.81-5.77-.81,0,0,.48-.42.48-.42,0,0,.02,48.16.02,48.16,0,0,0,.48,0,.48,0,0-.48-.04-.48-.04,0,0-5.86-.46-5.86-.46,0,0,.48-.44.48-.44,0,0,.02,48.52.02,48.52,0,0,0,.48,0,.48h-.48s-5.94-.11-5.94-.11c0,0,.48-.47.48-.47,0,0,.02,39.1.02,39.1,0,0,0,.47,0,.47,0,0-.47.01-.47.01,0,0-6.04.19-6.04.19l.48-.49s.02,39.4.02,39.4v.47s-.47.04-.47.04c0,0-6.13.49-6.13.49,0,0,.47-.51.47-.51,0,0,.01,29.77.01,29.77,0,0,0,.47,0,.47,0,0-.46.05-.46.05,0,0-6.22.73-6.22.73,0,0,.47-.52.47-.52,0,0,.01,30,.01,30,0,0,0,.46,0,.46,0,0-.46.07-.46.07,0,0-12.73,1.95-12.73,1.95l-.63.1s0-.64,0-.64c0,0,0-20.31,0-20.31,0,0,.63.55.63.55,0,0-6.52.84-6.52.84,0,0-.63.08-.63.08,0,0,0-.64,0-.64,0,0-.02-40.95-.02-40.95,0,0,.62.58.62.58l-6.62.53-.63.05v-.63s-.02-41.27-.02-41.27c0,0,.62.6.62.6-.8.02-6.8.22-7.35.23,0,0,0-.62,0-.62,0,0-.02-41.6-.02-41.6,0,0,.61.62.61.62l-13.78-.25h-.62s0-.63,0-.63c0,0-.03-63.41-.03-63.41l.6.65s-7.06-.64-7.06-.64c0,0-.6-.05-.6-.05,0,0,0-.6,0-.6,0,0-.02-42.62-.02-42.62,0,0,.58.67.58.67,0,0-7.17-1.01-7.17-1.01,0,0-.59-.08-.59-.08,0,0,0-.59,0-.59,0,0,0-10.74,0-10.74,0,0,.58.68.58.68,0,0-7.29-1.11-7.29-1.11,0,0,.79-.68.79-.68,0,0,0,21.66,0,21.66,0,0,0,.8,0,.8,0,0-.79-.1-.79-.1,0,0-7.42-.95-7.42-.95,0,0,.79-.7.79-.7,0,0,.01,32.77.01,32.77,0,0,0,.79,0,.79,0,0-.78-.07-.78-.07l-7.54-.69s.79-.72.79-.72c0,0,.02,44.06.02,44.06,0,0,0,.77,0,.77,0,0-.77-.03-.77-.03,0,0-7.67-.32-7.67-.32l.78-.74s.02,44.44.02,44.44c0,0,0,.76,0,.76,0,0-.76,0-.76,0,0,0-7.8.05-7.8.05,0,0,.76-.77.76-.77,0,0,.02,44.82.02,44.82v.75s-.75.04-.75.04c0,0-7.94.44-7.94.44,0,0,.75-.79.75-.79,0,0,.02,33.9.02,33.9v.74s-.73.07-.73.07c0,0-8.07.75-8.07.75,0,0,.74-.81.74-.81,0,0,.03,57,.03,57,0,0,0,.72,0,.72,0,0-.71.11-.71.11,0,0-8.22,1.26-8.22,1.26,0,0,.71-.83.71-.83,0,0,0,11.5,0,11.5v.72c-1.23.19-8.89,1.49-10.06,1.67,0,0,0-1,0-1v-23.21s.97.85.97.85c0,0-8.51,1.2-8.51,1.2,0,0-.98.14-.98.14v-1s-.02-35.12-.02-35.12c0,0,.97.88.97.88,0,0-13.06,1.37-13.06,1.37l-.98.1s0-.98,0-.98c0,0-.02-47.47-.02-47.47l.96.91s-13.42.75-13.42.75c0,0-.96.05-.96.05v-.97s-.03-72.19-.03-72.19l.93.95s-9.16-.16-9.16-.16c0,0-.93-.02-.93-.02,0,0,0-.93,0-.93,0,0-.02-48.57-.02-48.57,0,0,.91.97.91.97-1.16-.09-9.53-.63-10.24-.68,0,0,0-.91,0-.91,0,0-.02-49.03-.02-49.03,0,0,.88.99.88.99,0,0-9.51-1.1-9.51-1.1,0,0-.89-.1-.89-.1,0,0,0-.89,0-.89,0,0-.02-37.12-.02-37.12,0,0,.87,1.01.87,1.01,0,0-9.69-1.48-9.69-1.48l-.87-.13s0-.88,0-.88c0,0,0-12.49,0-12.49l.86,1.02s-9.88-1.63-9.88-1.63c0,0,1.2-1.02,1.2-1.02,0,0,.03,63.07.03,63.07,0,0,0,1.18,0,1.18,0,0-1.17-.12-1.17-.12,0,0-10.07-1.04-10.07-1.04,0,0,1.18-1.06,1.18-1.06,0,0,.02,50.95.02,50.95,0,0,0,1.15,0,1.15,0,0-1.15-.06-1.15-.06l-10.27-.56s1.16-1.09,1.16-1.09l.02,51.45s0,1.13,0,1.13c0,0-1.13,0-1.13,0l-10.47-.06s1.13-1.12,1.13-1.12l.02,51.96v1.1s-1.1.05-1.1.05c0,0-10.68.46-10.68.46l1.1-1.15s.02,52.49.02,52.49v1.07s-1.07.1-1.07.1c0,0-10.9,1.01-10.9,1.01,0,0,1.07-1.18,1.07-1.18,0,0,.02,39.76.02,39.76,0,0,0,1.05,0,1.05l-1.05.13s-11.12,1.44-11.12,1.44c0,0,1.05-1.19,1.05-1.19,0,0,.01,26.78.01,26.78,0,0,0,1.04,0,1.04,0,0-1.03.16-1.03.16,0,0-11.35,1.74-11.35,1.74,0,0-1.41.22-1.41.22,0,0,0-1.42,0-1.42,0,0,0-13.53,0-13.53,0,0,1.4,1.22,1.4,1.22,0,0-11.59,1.64-11.59,1.64,0,0-1.4.2-1.4.2,0,0,0-1.42,0-1.42,0,0-.02-54.69-.02-54.69,0,0,1.37,1.25,1.37,1.25,0,0-11.84,1.09-11.84,1.09,0,0-1.38.13-1.38.13,0,0,0-1.38,0-1.38l-.04-82.9,1.32,1.3c-1.24.03-12.73.23-13.42.25,0,0,0-1.33,0-1.33,0,0-.03-55.86-.03-55.86,0,0,1.29,1.33,1.29,1.33-1.15-.02-13.16-.4-13.65-.41,0,0,0-1.3,0-1.3,0,0-.02-42.35-.02-42.35,0,0,1.26,1.35,1.26,1.35,0,0-12.63-.84-12.63-.84l-1.27-.08s0-1.27,0-1.27c0,0-.02-42.81-.02-42.81,0,0,1.24,1.37,1.24,1.37-.57-.09-13.93-1.42-14.15-1.46,0,0,0-1.25,0-1.25,0,0,0-14.43,0-14.43,0,0,1.23,1.38,1.23,1.38,0,0-13.19-1.53-13.19-1.53,0,0-1.24-.14-1.24-.14,0,0,0-1.25,0-1.25,0,0-.02-43.77-.02-43.77,0,0,1.2,1.4,1.2,1.4,0,0-13.49-2.06-13.49-2.06,0,0,1.64-1.41,1.64-1.41,0,0,.01,29.51.01,29.51,0,0,0,1.63,0,1.63,0,0-1.62-.21-1.62-.21,0,0-13.8-1.77-13.8-1.77l1.63-1.43s.03,59.7.03,59.7c0,0,0,1.59,0,1.59l-1.59-.13-14.12-1.12,1.6-1.47s.03,60.39.03,60.39c0,0,0,1.55,0,1.55,0,0-1.55-.05-1.55-.05,0,0-14.45-.43-14.45-.43,0,0,1.56-1.51,1.56-1.51,0,0,.02,45.82.02,45.82v1.52s-1.52.01-1.52.01c0,0-14.79.1-14.79.1l1.53-1.54v30.91s.01,1.51.01,1.51c0,0-1.51.05-1.51.05,0,0-15.15.47-15.15.47,0,0,1.51-1.56,1.51-1.56,0,0,.03,62.56.03,62.56,0,0,0,1.47,0,1.47,0,0-1.46.12-1.46.12l-15.52,1.24,1.47-1.59.03,63.32s0,1.43,0,1.43c0,0-1.42.18-1.42.18,0,0-15.9,2.05-15.9,2.05l1.42-1.62v32.05s.02,1.41.02,1.41c-2.27.36-17.4,2.66-19.59,3.01,0,0,0-1.93,0-1.93v-32.45s1.87,1.65,1.87,1.65l-33.83,4.37s-1.9.24-1.9.24v-1.91s-.03-66.55-.03-66.55c0,0,1.85,1.71,1.85,1.71l-17.57,1.41-1.86.15v-1.87s-.04-84.27-.04-84.27l1.79,1.76s-18.03.34-18.03.34c0,0-1.8.03-1.8.03v-1.8s-.02-51.22-.02-51.22c0,0,1.76,1.79,1.76,1.79,0,0-18.51-.33-18.51-.33l-1.77-.03s0-1.77,0-1.77c0,0-.04-86.5-.04-86.5,0,0,1.69,1.83,1.69,1.83,0,0-19.01-1.5-19.01-1.5,0,0-1.7-.13-1.7-.13,0,0,0-1.71,0-1.71,0,0-.02-52.6-.02-52.6,0,0,1.66,1.86,1.66,1.86,0,0-19.53-2.26-19.53-2.26,0,0-1.66-.19-1.66-.19,0,0,0-1.68,0-1.68,0,0-.02-35.54-.02-35.54,0,0,1.63,1.88,1.63,1.88,0,0-20.07-2.81-20.07-2.81,0,0-1.64-.23-1.64-.23,0,0,0-1.66,0-1.66,0,0-.02-36.04-.02-36.04,0,0,1.61,1.9,1.61,1.9,0,0-20.63-3.4-20.63-3.4,0,0,2.25-1.91,2.25-1.91,0,0,.03,73.08.03,73.08,0,0,0,2.2,0,2.2,0,0-2.19-.25-2.19-.25,0,0-21.22-2.46-21.22-2.46,0,0,2.2-1.96,2.2-1.96,0,0,.03,74.12.03,74.12,0,0,0,2.15,0,2.15,0,0-2.14-.14-2.14-.14l-21.83-1.46s2.15-2.01,2.15-2.01c0,0,.03,75.19.03,75.19,0,0,0,2.09,0,2.09,0,0-2.09-.04-2.09-.04,0,0-22.47-.4-22.47-.4,0,0,2.1-2.06,2.1-2.06l.03,76.29v2.03s-2.03.06-2.03.06c0,0-23.14.72-23.14.72,0,0,2.04-2.11,2.04-2.11l.02,38.71s0,2.01,0,2.01c0,0-2.01.11-2.01.11,0,0-23.83,1.32-23.83,1.32,0,0,2.02-2.13,2.02-2.13,0,0,.03,58.94.03,58.94v1.97s-1.96.18-1.96.18c0,0-24.56,2.27-24.56,2.27,0,0,1.97-2.16,1.97-2.16,0,0,.02,39.9.02,39.9,0,0,0,1.95,0,1.95,0,0-1.94.23-1.94.23,0,0-25.33,2.96-25.33,2.96,0,0,1.95-2.19,1.95-2.19,0,0,.02,40.51.02,40.51,0,0,0,1.93,0,1.93,0,0-1.91.27-1.91.27,0,0-26.12,3.69-26.12,3.69,0,0-2.54.36-2.54.36,0,0,0-2.57,0-2.57,0,0-.04-82.31-.04-82.31,0,0,2.48,2.26,2.48,2.26,0,0-26.96,2.49-26.96,2.49,0,0-2.49.23-2.49.23,0,0,0-2.5,0-2.5,0,0-.03-62.72-.03-62.72,0,0,2.44,2.31,2.44,2.31,0,0-42.11,2.34-42.11,2.34,0,0-2.46.14-2.46.14,0,0,0-2.46,0-2.46,0,0-.05-107.11-.05-107.11l2.36,2.38s-44.24-.25-44.24-.25c0,0-2.38-.01-2.38-.01v-2.38s-.06-131.78-.06-131.78c0,0,2.26,2.45,2.26,2.45,0,0-30.75-2.43-30.75-2.43,0,0-2.27-.18-2.27-.18,0,0,0-2.28,0-2.28,0,0-.04-89.36-.04-89.36,0,0,2.19,2.49,2.19,2.49,0,0-31.83-4.07-31.83-4.07,0,0-2.2-.28-2.2-.28,0,0,0-2.22,0-2.22,0,0-.02-45.46-.02-45.46,0,0,2.16,2.52,2.16,2.52,0,0-32.96-5.02-32.96-5.02,0,0,2.95-2.53,2.95-2.53.01,2.04,0,24.63.01,26.09,0,0-2.93-.41-2.93-.41,0,0-34.15-4.79-34.15-4.79,0,0,2.95-2.56,2.95-2.56,0,0,.03,70.65.03,70.65,0,0,0,2.91,0,2.91,0,0-2.89-.3-2.89-.3,0,0-35.4-3.66-35.4-3.66,0,0,2.91-2.62,2.91-2.62,0,0,.02,47.97.02,47.97,0,0,0,2.88,0,2.88,0,0-2.87-.23-2.87-.23,0,0-36.73-2.9-36.73-2.9,0,0,2.89-2.67,2.89-2.67,0,0,.04,97.74.04,97.74,0,0,0,2.8,0,2.8,0,0-2.8-.08-2.8-.08,0,0-38.13-1.15-38.13-1.15l2.82-2.73s.06,124.5.06,124.5v2.71s-2.71.08-2.71.08c0,0-39.62,1.23-39.62,1.23,0,0,2.72-2.81,2.72-2.81,0,0,.03,76.16.03,76.16,0,0,0,2.66,0,2.66l-2.65.18s-41.19,2.79-41.19,2.79c0,0,2.67-2.86,2.67-2.86,0,0,.05,103.56.05,103.56,0,0,0,2.59,0,2.59,0,0-2.58.3-2.58.3,0,0-42.86,5.01-42.86,5.01,0,0,2.59-2.91,2.59-2.91,0,0,.04,79.24.04,79.24,0,0,0,2.54,0,2.54,0,0-2.52.39-2.52.39,0,0-44.63,6.85-44.63,6.85,0,0-3.44.53-3.44.53,0,0,0-3.48,0-3.48,0,0-.01-26.96-.01-26.96,0,0,3.42,2.97,3.42,2.97,0,0-46.51,6.57-46.51,6.57,0,0-3.44.49-3.44.49,0,0,0-3.48,0-3.48,0,0-.02-55.06-.02-55.06,0,0,3.4,3.02,3.4,3.02,0,0-48.52,5.67-48.52,5.67,0,0-3.42.4-3.42.4,0,0,0-3.45,0-3.45,0,0-.06-140.62-.06-140.62,0,0,3.3,3.13,3.3,3.13,0,0-50.66,2.82-50.66,2.82,0,0-3.33.18-3.33.18,0,0,0-3.33,0-3.33,0,0-.07-143.72-.07-143.72,0,0,3.2,3.22,3.2,3.22,0,0-52.95-.3-52.95-.3l-3.22-.02s0-3.22,0-3.22c0,0-.03-58.78-.03-58.78,0,0,3.17,3.27,3.17,3.27,0,0-55.39-1.67-55.39-1.67,0,0-3.19-.1-3.19-.1,0,0,0-3.2,0-3.2,0,0-.07-150.35-.07-150.35,0,0,3.05,3.35,3.05,3.35,0,0-58.01-5.29-58.01-5.29,0,0-3.08-.28-3.08-.28,0,0,0-3.09,0-3.09,0,0-.06-123.12-.06-123.12,0,0,2.96,3.41,2.96,3.41,0,0-60.82-8.53-60.82-8.53,0,0,3.95-3.44,3.95-3.44,0,0,.01,31.52.01,31.52,0,0,0,3.81,0,3.81,0,0-3.8-.34-3.8-.34,0,0-31.52-2.84-31.52-2.84,0,0,.63-6.97.63-6.97,0,0,31.52,2.87,31.52,2.87,0,0-3.8,3.47-3.8,3.47,0,0,.01-31.52.01-31.52,0,0,0-4,0-4,4.37.62,63.29,8.93,67.73,9.56,0,0,0,2.99,0,2.99,0,0-.06,123.12-.06,123.12,0,0-3.08-3.37-3.08-3.37,0,0,58.01,5.35,58.01,5.35,0,0,3.06.28,3.06.28,0,0,0,3.07,0,3.07,0,0-.07,150.35-.07,150.35,0,0-3.19-3.29-3.19-3.29,0,0,55.39,1.72,55.39,1.72,0,0,3.17.1,3.17.1,0,0,0,3.17,0,3.17,0,0-.03,58.78-.03,58.78,0,0-3.22-3.24-3.22-3.24,0,0,52.95.34,52.95.34,0,0,3.2.02,3.2.02,0,0,0,3.2,0,3.2,0,0-.07,143.72-.07,143.72,0,0-3.33-3.15-3.33-3.15,0,0,50.67-2.77,50.67-2.77,0,0,3.3-.18,3.3-.18,0,0,0,3.31,0,3.31,0,0-.06,140.62-.06,140.62,0,0-3.42-3.05-3.42-3.05,0,0,48.53-5.62,48.53-5.62,0,0,3.4-.39,3.4-.39,0,0,0,3.42,0,3.42,0,0-.02,55.06-.02,55.06l-3.44-2.99s46.52-6.53,46.52-6.53c0,0,3.42-.48,3.42-.48,0,0,0,3.45,0,3.45,0,0-.01,26.96-.01,26.96,0,0-3.44-2.95-3.44-2.95,0,0,44.64-6.81,44.64-6.81,0,0-2.52,2.93-2.52,2.93,0,0,.04-79.24.04-79.24,0,0,0-2.61,0-2.61,0,0,2.59-.3,2.59-.3,0,0,42.86-4.97,42.86-4.97,0,0-2.57,2.89-2.57,2.89,0,0,.05-103.56.05-103.56,0,0,0-2.68,0-2.68,0,0,2.67-.18,2.67-.18,0,0,41.19-2.76,41.19-2.76,0,0-2.65,2.84-2.65,2.84,0,0,.03-76.16.03-76.16,0,0,0-2.73,0-2.73,0,0,2.72-.08,2.72-.08,0,0,39.62-1.2,39.62-1.2,0,0-2.71,2.79-2.71,2.79,0,0,.06-124.5.06-124.5,0,0,0-2.82,0-2.82,0,0,2.82.09,2.82.09,0,0,38.13,1.18,38.13,1.18l-2.8,2.72s.04-97.74.04-97.74c0,0,0-2.9,0-2.9,0,0,2.89.23,2.89.23,0,0,36.73,2.94,36.73,2.94,0,0-2.87,2.65-2.87,2.65,0,0,.02-47.97.02-47.97,0,0,0-2.93,0-2.93,0,0,2.91.3,2.91.3,0,0,35.4,3.7,35.4,3.7,0,0-2.89,2.61-2.89,2.61,0,0,.03-70.65.03-70.65v-2.98s2.95.42,2.95.42c0,0,34.14,4.82,34.14,4.82,0,0-2.93,2.55-2.93,2.55,0,0,.01-23.13.01-23.13v-2.98c3.14.51,34.79,5.32,38.07,5.84,0,0,0,2.19,0,2.19,0,0-.02,45.46-.02,45.46,0,0-2.2-2.51-2.2-2.51,0,0,31.82,4.1,31.82,4.1,0,0,2.19.28,2.19.28,0,0,0,2.21,0,2.21,0,0-.04,89.36-.04,89.36l-2.28-2.46s30.75,2.46,30.75,2.46c0,0,2.26.18,2.26.18,0,0,0,2.27,0,2.27,0,0-.06,131.78-.06,131.78,0,0-2.38-2.4-2.38-2.4,0,0,44.24.29,44.24.29,0,0,2.36.02,2.36.02,0,0,0,2.36,0,2.36,0,0-.05,107.11-.05,107.11,0,0-2.46-2.33-2.46-2.33,0,0,42.11-2.3,42.11-2.3,0,0,2.44-.13,2.44-.13,0,0,0,2.44,0,2.44,0,0-.03,62.72-.03,62.72,0,0-2.49-2.27-2.49-2.27,0,0,26.96-2.46,26.96-2.46,0,0,2.48-.23,2.48-.23,0,0,0,2.49,0,2.49,0,0-.04,82.31-.04,82.31,0,0-2.54-2.21-2.54-2.21,0,0,26.13-3.67,26.13-3.67,0,0-1.91,2.2-1.91,2.2,0,0,.02-40.51.02-40.51,0,0,0-1.96,0-1.96,0,0,1.95-.23,1.95-.23,0,0,25.33-2.93,25.33-2.93,0,0-1.94,2.18-1.94,2.18,0,0,.02-39.9.02-39.9,0,0,0-1.98,0-1.98,0,0,1.97-.18,1.97-.18,0,0,24.56-2.24,24.56-2.24l-1.96,2.15s.03-58.94.03-58.94v-2.02s2.02-.11,2.02-.11c0,0,23.83-1.3,23.83-1.3,0,0-2.01,2.12-2.01,2.12l.02-38.71s0-2.04,0-2.04l2.04-.06s23.14-.7,23.14-.7c0,0-2.03,2.09-2.03,2.09,0,0,.03-76.29.03-76.29,0,0,0-2.1,0-2.1,0,0,2.1.04,2.1.04,0,0,22.47.42,22.47.42,0,0-2.09,2.05-2.09,2.05,0,0,.03-75.19.03-75.19,0,0,0-2.16,0-2.16s2.15.15,2.15.15c0,0,21.83,1.48,21.83,1.48,0,0-2.14,2-2.14,2,0,0,.03-74.12.03-74.12v-2.22s2.2.26,2.2.26c0,0,21.22,2.47,21.22,2.47,0,0-2.19,1.95-2.19,1.95,0,0,.03-73.08.03-73.08,0,0,0-2.28,0-2.28,0,0,2.24.37,2.24.37,0,0,20.63,3.42,20.63,3.42,0,0,1.61.27,1.61.27v1.63s-.02,36.04-.02,36.04l-1.64-1.89s20.07,2.83,20.07,2.83c0,0,1.63.23,1.63.23v1.65s-.02,35.54-.02,35.54l-1.66-1.87s19.53,2.28,19.53,2.28c0,0,1.66.19,1.66.19v1.67s-.02,52.6-.02,52.6c0,0-1.7-1.84-1.7-1.84,0,0,19.01,1.52,19.01,1.52,0,0,1.69.14,1.69.14,0,0,0,1.7,0,1.7l-.04,86.5s-1.77-1.8-1.77-1.8c.9,0,20.01.38,20.27.38,0,0,0,1.76,0,1.76l-.02,51.22s-1.8-1.77-1.8-1.77l18.04-.32s1.79-.03,1.79-.03v1.79s-.04,84.27-.04,84.27c0,0-1.86-1.72-1.86-1.72.89-.09,19.2-1.51,19.43-1.54,0,0,0,1.85,0,1.85,0,0-.03,66.55-.03,66.55,0,0-1.9-1.67-1.9-1.67,0,0,33.84-4.34,33.84-4.34,0,0,1.88-.24,1.88-.24,0,0,0,1.9,0,1.9,0,0-.01,32.45-.01,32.45,0,0-1.9-1.63-1.9-1.63,0,0,16.3-2.49,16.3-2.49,0,0-1.4,1.63-1.4,1.63,0,0,.01-32.05.01-32.05v-1.44s1.42-.18,1.42-.18c0,0,15.9-2.04,15.9-2.04,0,0-1.42,1.61-1.42,1.61,0,0,.03-63.32.03-63.32v-1.47s1.47-.12,1.47-.12c0,0,15.52-1.23,15.52-1.23l-1.46,1.58s.03-62.56.03-62.56c0,0,0-1.51,0-1.51,0,0,1.51-.05,1.51-.05,0,0,15.15-.46,15.15-.46s-1.51,1.55-1.51,1.55c0,0,.01-30.91.01-30.91,0,0,0-1.53,0-1.53.94.01,15.05-.1,16.32-.09,0,0-1.52,1.53-1.52,1.53,0,0,.02-45.82.02-45.82,0,0,0-1.56,0-1.56,1.48.02,14.37.47,16.01.5,0,0-1.55,1.5-1.55,1.5,0,0,.03-60.39.03-60.39,0,0,0-1.6,0-1.6,2.16.13,13.6,1.11,15.72,1.26,0,0-1.59,1.47-1.59,1.47,0,0,.03-59.7.03-59.7v-1.64s1.63.21,1.63.21c0,0,13.8,1.78,13.8,1.78l-1.62,1.43s.01-29.51.01-29.51c0,0,0-1.66,0-1.66,0,0,1.64.25,1.64.25,0,0,13.49,2.07,13.49,2.07,0,0,1.21.18,1.21.18,0,0,0,1.22,0,1.22,0,0-.02,43.77-.02,43.77,0,0-1.24-1.39-1.24-1.39,0,0,13.19,1.54,13.19,1.54l1.23.14s0,1.24,0,1.24c0,0,0,14.43,0,14.43l-1.24-1.38s12.9,1.35,12.9,1.35c0,0,1.24.13,1.24.13v1.24s-.02,42.81-.02,42.81l-1.27-1.36s12.63.85,12.63.85l1.27.09s0,1.27,0,1.27c0,0-.02,42.35-.02,42.35,0,0-1.3-1.34-1.3-1.34,0,0,12.35.38,12.35.38l1.29.04v1.29s-.03,55.86-.03,55.86c0,0-1.33-1.31-1.33-1.31l12.09-.22,1.32-.02s0,1.32,0,1.32c0,0-.04,82.9-.04,82.9l-1.38-1.26s11.84-1.08,11.84-1.08c0,0,1.37-.13,1.37-.13,0,0,0,1.38,0,1.38,0,0-.02,54.69-.02,54.69,0,0-1.4-1.22-1.4-1.22,0,0,11.59-1.63,11.59-1.63,0,0,1.4-.2,1.4-.2v1.41s0,13.53,0,13.53c0,0-1.41-1.21-1.41-1.21,0,0,11.36-1.73,11.36-1.73,0,0-1.03,1.2-1.03,1.2,0,0,.01-26.78.01-26.78,0,0,0-1.06,0-1.06,0,0,1.05-.13,1.05-.13,0,0,11.13-1.42,11.13-1.42,0,0-1.05,1.19-1.05,1.19,0,0,.02-39.76.02-39.76,0,0,0-1.08,0-1.08,0,0,1.07-.1,1.07-.1s10.9-1,10.9-1c0,0-1.07,1.17-1.07,1.17,0,0,.02-52.49.02-52.49,0,0,0-1.1,0-1.1l1.1-.05s10.68-.45,10.68-.45l-1.1,1.15s.02-51.96.02-51.96c0,0,0-1.13,0-1.13,0,0,1.13,0,1.13,0,0,0,10.47.07,10.47.07,0,0-1.13,1.12-1.13,1.12,0,0,.02-51.45.02-51.45,0,0,0-1.16,0-1.16,0,0,1.16.06,1.16.06,0,0,10.27.57,10.27.57,0,0-1.15,1.09-1.15,1.09,0,0,.02-50.95.02-50.95,0,0,0-1.19,0-1.19l1.18.12s10.07,1.05,10.07,1.05c0,0-1.17,1.06-1.17,1.06l.03-63.07s0-1.22,0-1.22c0,0,1.2.2,1.2.2,0,0,9.88,1.64,9.88,1.64l.86.14s0,.87,0,.87c0,0,0,12.49,0,12.49,0,0-.87-1.01-.87-1.01,0,0,9.69,1.49,9.69,1.49,0,0,.87.13.87.13,0,0,0,.88,0,.88,0,0-.02,37.12-.02,37.12,0,0-.89-1-.89-1,0,0,9.51,1.11,9.51,1.11,0,0,.88.1.88.1,0,0,0,.89,0,.89,0,0-.02,49.03-.02,49.03,0,0-.91-.97-.91-.97,0,0,9.33.63,9.33.63,0,0,.91.06.91.06,0,0,0,.91,0,.91,0,0-.02,48.57-.02,48.57,0,0-.93-.95-.93-.95,0,0,9.16.17,9.16.17l.93.02s0,.93,0,.93c0,0-.03,72.19-.03,72.19,0,0-.96-.91-.96-.91,0,0,13.42-.73,13.42-.73,0,0,.96-.05.96-.05,0,0,0,.96,0,.96,0,0-.02,47.47-.02,47.47,0,0-.98-.88-.98-.88,0,0,13.06-1.35,13.06-1.35,0,0,.97-.1.97-.1,0,0,0,.98,0,.98,0,0-.02,35.12-.02,35.12l-.98-.86s8.51-1.2,8.51-1.2c0,0,.98-.14.98-.14,0,0,0,.99,0,.99v23.21s-1-.84-1-.84l8.36-1.38s-.71.83-.71.83c0,0,0-11.5,0-11.5,0,0,0-.72,0-.72,0,0,.71-.11.71-.11,0,0,8.22-1.25,8.22-1.25,0,0-.71.83-.71.83,0,0,.03-57,.03-57,0,0,0-.74,0-.74,0,0,.74-.07.74-.07,0,0,8.08-.74,8.08-.74,0,0-.73.8-.73.8,0,0,.02-33.9.02-33.9v-.75s.75-.04.75-.04c0,0,7.94-.43,7.94-.43,0,0-.75.79-.75.79,0,0,.02-44.82.02-44.82,0,0,0-.76,0-.76,0,0,.76,0,.76,0l7.8-.04s-.76.77-.76.77c0,0,.02-44.44.02-44.44,0,0,0-.78,0-.78,0,0,.78.03.78.03l7.67.33-.77.74s.02-44.06.02-44.06c0,0,0-.79,0-.79,0,0,.79.07.79.07,0,0,7.54.7,7.54.7,0,0-.78.72-.78.72,0,0,.01-32.77.01-32.77,0,0,0-.8,0-.8,0,0,.79.1.79.1,0,0,7.42.96,7.42.96,0,0-.79.69-.79.69,0,0,0-21.66,0-21.66,0,0,0-.8,0-.8,0,0,.79.12.79.12,0,0,7.29,1.12,7.29,1.12,0,0,.58.09.58.09,0,0,0,.59,0,.59,0,0,0,10.74,0,10.74,0,0-.59-.68-.59-.68,0,0,7.17,1.01,7.17,1.01,0,0,.58.08.58.08,0,0,0,.59,0,.59,0,0-.02,42.62-.02,42.62,0,0-.6-.66-.6-.66l7.06.65.6.05s0,.6,0,.6c0,0-.03,63.41-.03,63.41,0,0-.62-.63-.62-.63,0,0,13.78.26,13.78.26,0,0,.61.01.61.01,0,0,0,.61,0,.61,0,0-.02,41.6-.02,41.6l-.62-.6s6.72-.2,6.72-.2c0,0,.62-.02.62-.02,0,0,0,.62,0,.62,0,0-.02,41.27-.02,41.27l-.63-.58s6.62-.52,6.62-.52c0,0,.62-.05.62-.05,0,0,0,.63,0,.63,0,0-.02,40.95-.02,40.95,0,0-.63-.55-.63-.55,0,0,6.52-.84,6.52-.84,0,0,.63-.08.63-.08,0,0,0,.63,0,.63,0,0,0,20.31,0,20.31,0,0-.63-.54-.63-.54,0,0,12.73-1.94,12.73-1.94l-.46.53s.01-30,.01-30c0,0,0-.47,0-.47,0,0,.47-.05.47-.05l6.22-.72s-.46.52-.46.52c0,0,.01-29.77.01-29.77,0,0,0-.47,0-.47,0,0,.47-.04.47-.04,0,0,6.13-.49,6.13-.49,0,0-.47.51-.47.51,0,0,.02-39.4.02-39.4,0,0,0-.48,0-.48,0,0,.48-.01.48-.01,0,0,6.04-.18,6.04-.18,0,0-.47.49-.47.49,0,0,.02-39.1.02-39.1,0,0,0-.48,0-.48h.48s5.94.12,5.94.12c0,0-.48.47-.48.47,0,0,.02-48.52.02-48.52,0,0,0-.48,0-.48,0,0,.48.04.48.04,0,0,5.86.47,5.86.47,0,0-.48.44-.48.44,0,0,.02-48.16.02-48.16v-.49s.48.07.48.07c0,0,5.77.81,5.77.81,0,0-.48.41-.48.41,0,0,0-9.56,0-9.56,0,0,0-.48,0-.48,0,0,.48.07.48.07,0,0,8.5,1.3,8.5,1.3,0,0,.35.05.35.05,0,0,0,.35,0,.35,0,0-.02,37.83-.02,37.83,0,0-.35-.39-.35-.39,0,0,8.32.87,8.32.87,0,0,.35.04.35.04,0,0,0,.35,0,.35,0,0-.03,56.13-.03,56.13,0,0-.35-.36-.35-.36,0,0,5.45.17,5.45.17,0,0,.35.01.35.01,0,0,0,.35,0,.35,0,0-.01,27.86-.01,27.86,0,0-.35-.35-.35-.35,0,0,5.37-.03,5.37-.03,0,0,.35,0,.35,0,0,0,0,.35,0,.35,0,0-.02,46.11-.02,46.11,0,0-.35-.32-.35-.32,0,0,5.29-.35,5.29-.35,0,0,.35-.02.35-.02,0,0,0,.35,0,.35,0,0-.01,27.47-.01,27.47,0,0-.34-.31-.34-.31,0,0,5.22-.54,5.22-.54l.34-.04v.34s-.01,27.28-.01,27.28c0,0-.34-.29-.34-.29,0,0,7.69-1.08,7.69-1.08,0,0,.08.58.08.58h0Z"/>
  </g>
</svg>