<?xml version="1.0" encoding="utf-8"?>
<!-- Generator: Adobe Illustrator 26.0.3, SVG Export Plug-In . SVG Version: 6.00 Build 0)  -->
<svg version="1.1" id="Group_410" xmlns="http://www.w3.org/2000/svg" xmlns:xlink="http://www.w3.org/1999/xlink" x="0px" y="0px"
	 width="16px" height="16px" viewBox="0 0 16 16" style="enable-background:new 0 0 16 16;" xml:space="preserve">
<style type="text/css">
	.st0{fill:#FFFFFF;}
</style>
<path id="Path_237" class="st0" d="M8,1.4c2.1,0,2.4,0,3.2,0c0.5,0,1,0.1,1.5,0.3c0.3,0.1,0.7,0.3,0.9,0.6c0.3,0.3,0.5,0.6,0.6,0.9
	c0.2,0.5,0.3,1,0.3,1.5c0,0.8,0,1.1,0,3.2s0,2.4,0,3.2c0,0.5-0.1,1-0.3,1.5c-0.3,0.7-0.8,1.2-1.5,1.5c-0.5,0.2-1,0.3-1.5,0.3
	c-0.8,0-1.1,0-3.2,0s-2.4,0-3.2,0c-0.5,0-1-0.1-1.5-0.3c-0.3-0.1-0.7-0.3-0.9-0.6c-0.3-0.3-0.5-0.6-0.6-0.9c-0.2-0.5-0.3-1-0.3-1.5
	c0-0.8,0-1.1,0-3.2s0-2.4,0-3.2c0-0.5,0.1-1,0.3-1.5c0.1-0.3,0.3-0.7,0.6-0.9c0.3-0.3,0.6-0.5,0.9-0.6c0.5-0.2,1-0.3,1.5-0.3
	C5.6,1.5,5.9,1.4,8,1.4 M8,0C5.8,0,5.6,0,4.7,0C4,0.1,3.4,0.2,2.8,0.4c-0.5,0.2-1,0.5-1.4,0.9C0.9,1.7,0.6,2.2,0.4,2.8
	C0.2,3.4,0.1,4,0,4.7C0,5.6,0,5.8,0,8s0,2.4,0,3.3c0,0.7,0.1,1.3,0.4,1.9c0.2,0.5,0.5,1,0.9,1.4c0.4,0.4,0.9,0.7,1.4,0.9
	C3.4,15.8,4,15.9,4.7,16c0.9,0,1.1,0,3.3,0s2.4,0,3.3,0c0.7,0,1.3-0.1,1.9-0.4c1.1-0.4,1.9-1.3,2.3-2.3c0.2-0.6,0.4-1.3,0.4-1.9
	c0-0.9,0-1.1,0-3.3s0-2.4,0-3.3c0-0.7-0.1-1.3-0.4-1.9c-0.2-0.5-0.5-1-0.9-1.4c-0.4-0.4-0.9-0.7-1.4-0.9C12.6,0.2,12,0.1,11.3,0
	C10.4,0,10.2,0,8,0"/>
<path id="Path_238" class="st0" d="M8,3.9C5.7,3.9,3.9,5.7,3.9,8c0,2.3,1.8,4.1,4.1,4.1c2.3,0,4.1-1.8,4.1-4.1l0,0
	C12.1,5.7,10.3,3.9,8,3.9C8,3.9,8,3.9,8,3.9 M8,10.7c-1.5,0-2.7-1.2-2.7-2.7c0-1.5,1.2-2.7,2.7-2.7c1.5,0,2.7,1.2,2.7,2.7
	S9.5,10.7,8,10.7"/>
<path id="Path_239" class="st0" d="M13.2,3.7c0,0.5-0.4,1-1,1c-0.5,0-1-0.4-1-1c0-0.5,0.4-1,1-1l0,0C12.8,2.8,13.2,3.2,13.2,3.7"/>
</svg>
