<svg xmlns="http://www.w3.org/2000/svg" xmlns:xlink="http://www.w3.org/1999/xlink" width="245.688" height="254.789" viewBox="0 0 245.688 254.789">
  <defs>
    <linearGradient id="linear-gradient" x1="0.5" x2="0.5" y2="1" gradientUnits="objectBoundingBox">
      <stop offset="0" stop-color="#ff0094"/>
      <stop offset="1" stop-color="#800a84"/>
    </linearGradient>
    <linearGradient id="linear-gradient-2" x1="0.5" x2="0.5" y2="1" gradientUnits="objectBoundingBox">
      <stop offset="0" stop-color="#ff0080"/>
      <stop offset="1" stop-color="#c900d1"/>
    </linearGradient>
    <clipPath id="clip-path">
      <path id="Path_740" data-name="Path 740" d="M178.394,34.333a14.376,14.376,0,0,0-19.241,5.751c-5.505,10.078-9.423,25.766-12.216,43.364l-2.775-2.671a28.567,28.567,0,0,1-8.449-16.6V11.907C135.713,5.341,130.075,0,123.146,0S110.58,5.341,110.58,11.907V64.143a28.533,28.533,0,0,1-8.649,16.548l-3.144,2.962c-2.8-17.685-6.729-33.455-12.253-43.569A14.371,14.371,0,0,0,67.3,34.333C46.732,45.13-.981,80.122.015,171.605c.755,68.843,11.652,80.14,19.778,82.652a11.821,11.821,0,0,0,3.494.532c7.9,0,13.777-8.044,14.5-9.086l.268-.441c.364-.66,9.136-16.238,31.357-17.863,10.847-.792,20.269-6.4,27.253-16.215a50.015,50.015,0,0,0,8.89-29.66c-.136-15.506-.764-41.517-3.139-67.742L123.041,94.4l20.215,19.46c-2.366,26.2-2.989,52.177-3.13,67.665a50.019,50.019,0,0,0,8.895,29.66C156,221,165.418,226.6,176.279,227.4c22.212,1.624,30.989,17.2,31.339,17.844l.282.46c.728,1.042,6.6,9.086,14.5,9.086a11.813,11.813,0,0,0,3.49-.532c8.131-2.511,19.023-13.8,19.778-82.652,1.006-91.478-46.713-126.471-67.278-137.272" transform="translate(0.001)" fill="url(#linear-gradient)"/>
    </clipPath>
    <linearGradient id="linear-gradient-3" x1="0.5" x2="0.5" y2="1" gradientUnits="objectBoundingBox">
      <stop offset="0" stop-color="#ff0094"/>
      <stop offset="0.128" stop-color="#ff0094"/>
      <stop offset="0.315" stop-color="#7200f6"/>
      <stop offset="0.665" stop-color="#c900d1"/>
      <stop offset="1" stop-color="#c900d1"/>
    </linearGradient>
    <linearGradient id="linear-gradient-4" x1="0.253" y1="0.724" x2="0.901" y2="0.54" gradientUnits="objectBoundingBox">
      <stop offset="0" stop-color="#00ebff"/>
      <stop offset="1" stop-color="#5e0062"/>
    </linearGradient>
    <linearGradient id="linear-gradient-5" x1="0.453" y1="0.787" x2="0.489" y2="0.19" gradientUnits="objectBoundingBox">
      <stop offset="0" stop-color="#ff60c2"/>
      <stop offset="1" stop-color="#c900d1"/>
    </linearGradient>
    <linearGradient id="linear-gradient-6" x1="0.5" x2="0.5" y2="1" gradientUnits="objectBoundingBox">
      <stop offset="0" stop-color="#ff0094"/>
      <stop offset="1" stop-color="#1c001d"/>
    </linearGradient>
    <linearGradient id="linear-gradient-7" x1="0.992" y1="1.016" x2="0.5" y2="1" gradientUnits="objectBoundingBox">
      <stop offset="0" stop-color="#0076ff"/>
      <stop offset="1" stop-color="#c900d1"/>
    </linearGradient>
    <linearGradient id="linear-gradient-8" x1="0.5" x2="0.5" y2="1" gradientUnits="objectBoundingBox">
      <stop offset="0" stop-color="#ff0062"/>
      <stop offset="1" stop-color="#c900d1"/>
    </linearGradient>
    <filter id="heart" x="97.031" y="47.232" width="102.834" height="157.299" filterUnits="userSpaceOnUse">
      <feOffset dy="3" input="SourceAlpha"/>
      <feGaussianBlur stdDeviation="3" result="blur"/>
      <feFlood flood-opacity="0.816"/>
      <feComposite operator="in" in2="blur"/>
      <feComposite in="SourceGraphic"/>
    </filter>
    <clipPath id="clip-path-2">
      <path id="heart-2" data-name="heart" d="M2.745,32.407c10.5-4.088,26.662-1.334,30.6,3a8.828,8.828,0,0,1,1.8,8.758l2.227-.847a9.247,9.247,0,0,0-1.964-8.862c-4.2-4.938-11.812-5.157-15.163-5.661-2.48-.373-5.01-2.484-4.648-6.893.568-6.912,3.768-7.421,4.92-7.507.292-.022,1.353,0,1.352-.005-.512-1.879-1.275-3.216-4.269-6.824-1.626-1.948,4.705-6.544,6.256-4.536,3.807,4.93,4.944,7.83,5.955,11.777l1.5.2c-.431-6.122-3.79-11.163-3.89-11.61C26.953,1.321,33.4-1.374,34.636.816,37.941,6.693,38.5,11.109,39,16.5l1.287.547c-.176-5.489-.284-8.611.841-14.008.516-2.478,8.646-.18,8.008,2.277-1.128,4.392-.84,9.618-.573,15.117a20.716,20.716,0,0,1,7.47,10.1,25.6,25.6,0,0,1,.624,11.548l.6.131S60.343,37.034,59.97,24.8c-.207-6.8-.541-13.456-.545-13.544C59.316,8.668,69.927,7,72.72,9.158c1.542,1.192,2.268,8.334,1.971,18.349-.3,10.112-2.82,14.628-2.593,18.876a4.447,4.447,0,0,0,1.286,2.558.327.327,0,0,1,.05.049,13.416,13.416,0,0,0,1.034.98c.241.235.585.585.818.825l.969,1.068a45.954,45.954,0,0,1,6.707,12.5c9.626,28.413-20.094,62.444-38.784,72.5-8.394,4.518-13.305,2.012-16.266-1.529-6.668-7.976-19.9-29.448-21.972-49.563C4.6,72.794,8.987,63.4,9.6,62.52l2.226-3.293h0l.008-.011h0a77.156,77.156,0,0,1,5.344-6.773c.022-.025,9.951-11.119-13.6-5.734C-.7,47.685-1.342,34,2.745,32.407" transform="translate(0.001 -0.002)" fill="url(#linear-gradient-2)"/>
    </clipPath>
    <linearGradient id="linear-gradient-9" x1="0.5" x2="0.5" y2="1" gradientUnits="objectBoundingBox">
      <stop offset="0" stop-color="#ff0076"/>
      <stop offset="1" stop-color="#c900d1"/>
    </linearGradient>
    <filter id="heart-3" x="97.031" y="47.232" width="102.834" height="157.299" filterUnits="userSpaceOnUse">
      <feOffset dy="3" input="SourceAlpha"/>
      <feGaussianBlur stdDeviation="3" result="blur-2"/>
      <feFlood flood-opacity="0.816"/>
      <feComposite operator="in" in2="blur-2"/>
      <feComposite in="SourceGraphic"/>
    </filter>
    <linearGradient id="linear-gradient-10" x1="0.5" x2="0.5" y2="1" gradientUnits="objectBoundingBox">
      <stop offset="0" stop-color="#00ebff"/>
      <stop offset="1" stop-color="#c900d1"/>
    </linearGradient>
  </defs>
  <g id="Group_842" data-name="Group 842" transform="translate(-929.157 -780.844)">
    <g id="Mask_Group_13" data-name="Mask Group 13" transform="translate(929.156 780.844)" clip-path="url(#clip-path)">
      <path id="Path_740-2" data-name="Path 740" d="M178.394,34.333a14.376,14.376,0,0,0-19.241,5.751c-5.505,10.078-9.423,25.766-12.216,43.364l-2.775-2.671a28.567,28.567,0,0,1-8.449-16.6V11.907C135.713,5.341,130.075,0,123.146,0S110.58,5.341,110.58,11.907V64.143a28.533,28.533,0,0,1-8.649,16.548l-3.144,2.962c-2.8-17.685-6.729-33.455-12.253-43.569A14.371,14.371,0,0,0,67.3,34.333C46.732,45.13-.981,80.122.015,171.605c.755,68.843,11.652,80.14,19.778,82.652a11.821,11.821,0,0,0,3.494.532c7.9,0,13.777-8.044,14.5-9.086l.268-.441c.364-.66,9.136-16.238,31.357-17.863,10.847-.792,20.269-6.4,27.253-16.215a50.015,50.015,0,0,0,8.89-29.66c-.136-15.506-.764-41.517-3.139-67.742L123.041,94.4l20.215,19.46c-2.366,26.2-2.989,52.177-3.13,67.665a50.019,50.019,0,0,0,8.895,29.66C156,221,165.418,226.6,176.279,227.4c22.212,1.624,30.989,17.2,31.339,17.844l.282.46c.728,1.042,6.6,9.086,14.5,9.086a11.813,11.813,0,0,0,3.49-.532c8.131-2.511,19.023-13.8,19.778-82.652,1.006-91.478-46.713-126.471-67.278-137.272" transform="translate(0.001)" fill="url(#linear-gradient-3)"/>
      <path id="Path_741" data-name="Path 741" d="M21054.137,870.986c40.822-4.672,72.758,43.19,65.459,115.674s-56.209,160.609-69.02,165.721-127.545-30.83-94.277-147.032S21013.313,875.658,21054.137,870.986Z" transform="translate(-21040.133 -838.028)" opacity="0.688" fill="url(#linear-gradient-4)"/>
      <path id="Path_742" data-name="Path 742" d="M21334.285,808.348s-36.793-12.695-50.242-3.422-83.258,25.035-49.1,95.5,113.676,88.768,148.215,98.334-10.465-168.688-10.465-168.688Z" transform="translate(-21117.969 -815.448)" fill="url(#linear-gradient-5)"/>
      <path id="Path_743" data-name="Path 743" d="M21211.164,1179.394c30.766-42.748,56.652-62.264,93.387-47.765s31.232,75.658,31.232,75.658l-117.645,12.166-6.975-38.013Z" transform="translate(-21101.559 -936.131)" fill="url(#linear-gradient-6)"/>
      <ellipse id="Ellipse_37" data-name="Ellipse 37" cx="103.875" cy="93.7" rx="103.875" ry="93.7" transform="translate(82.254 35.612)" opacity="0.611" fill="url(#linear-gradient-7)"/>
    </g>
    <g transform="matrix(1, 0, 0, 1, 929.16, 780.84)" filter="url(#heart)">
      <path id="heart-4" data-name="heart" d="M2.745,32.407c10.5-4.088,26.662-1.334,30.6,3a8.828,8.828,0,0,1,1.8,8.758l2.227-.847a9.247,9.247,0,0,0-1.964-8.862c-4.2-4.938-11.812-5.157-15.163-5.661-2.48-.373-5.01-2.484-4.648-6.893.568-6.912,3.768-7.421,4.92-7.507.292-.022,1.353,0,1.352-.005-.512-1.879-1.275-3.216-4.269-6.824-1.626-1.948,4.705-6.544,6.256-4.536,3.807,4.93,4.944,7.83,5.955,11.777l1.5.2c-.431-6.122-3.79-11.163-3.89-11.61C26.953,1.321,33.4-1.374,34.636.816,37.941,6.693,38.5,11.109,39,16.5l1.287.547c-.176-5.489-.284-8.611.841-14.008.516-2.478,8.646-.18,8.008,2.277-1.128,4.392-.84,9.618-.573,15.117a20.716,20.716,0,0,1,7.47,10.1,25.6,25.6,0,0,1,.624,11.548l.6.131S60.343,37.034,59.97,24.8c-.207-6.8-.541-13.456-.545-13.544C59.316,8.668,69.927,7,72.72,9.158c1.542,1.192,2.268,8.334,1.971,18.349-.3,10.112-2.82,14.628-2.593,18.876a4.447,4.447,0,0,0,1.286,2.558.327.327,0,0,1,.05.049,13.416,13.416,0,0,0,1.034.98c.241.235.585.585.818.825l.969,1.068a45.954,45.954,0,0,1,6.707,12.5c9.626,28.413-20.094,62.444-38.784,72.5-8.394,4.518-13.305,2.012-16.266-1.529-6.668-7.976-19.9-29.448-21.972-49.563C4.6,72.794,8.987,63.4,9.6,62.52l2.226-3.293h0l.008-.011h0a77.156,77.156,0,0,1,5.344-6.773c.022-.025,9.951-11.119-13.6-5.734C-.7,47.685-1.342,34,2.745,32.407" transform="translate(106.03 53.23)" opacity="0.405" fill="url(#linear-gradient-8)"/>
    </g>
    <g id="Mask_Group_14" data-name="Mask Group 14" transform="translate(1035.188 834.076)" clip-path="url(#clip-path-2)">
      <g transform="matrix(1, 0, 0, 1, -106.03, -53.23)" filter="url(#heart-3)">
        <path id="heart-5" data-name="heart" d="M2.745,32.407c10.5-4.088,26.662-1.334,30.6,3a8.828,8.828,0,0,1,1.8,8.758l2.227-.847a9.247,9.247,0,0,0-1.964-8.862c-4.2-4.938-11.812-5.157-15.163-5.661-2.48-.373-5.01-2.484-4.648-6.893.568-6.912,3.768-7.421,4.92-7.507.292-.022,1.353,0,1.352-.005-.512-1.879-1.275-3.216-4.269-6.824-1.626-1.948,4.705-6.544,6.256-4.536,3.807,4.93,4.944,7.83,5.955,11.777l1.5.2c-.431-6.122-3.79-11.163-3.89-11.61C26.953,1.321,33.4-1.374,34.636.816,37.941,6.693,38.5,11.109,39,16.5l1.287.547c-.176-5.489-.284-8.611.841-14.008.516-2.478,8.646-.18,8.008,2.277-1.128,4.392-.84,9.618-.573,15.117a20.716,20.716,0,0,1,7.47,10.1,25.6,25.6,0,0,1,.624,11.548l.6.131S60.343,37.034,59.97,24.8c-.207-6.8-.541-13.456-.545-13.544C59.316,8.668,69.927,7,72.72,9.158c1.542,1.192,2.268,8.334,1.971,18.349-.3,10.112-2.82,14.628-2.593,18.876a4.447,4.447,0,0,0,1.286,2.558.327.327,0,0,1,.05.049,13.416,13.416,0,0,0,1.034.98c.241.235.585.585.818.825l.969,1.068a45.954,45.954,0,0,1,6.707,12.5c9.626,28.413-20.094,62.444-38.784,72.5-8.394,4.518-13.305,2.012-16.266-1.529-6.668-7.976-19.9-29.448-21.972-49.563C4.6,72.794,8.987,63.4,9.6,62.52l2.226-3.293h0l.008-.011h0a77.156,77.156,0,0,1,5.344-6.773c.022-.025,9.951-11.119-13.6-5.734C-.7,47.685-1.342,34,2.745,32.407" transform="translate(106.03 53.23)" fill="url(#linear-gradient-9)"/>
      </g>
      <ellipse id="Ellipse_38" data-name="Ellipse 38" cx="49.317" cy="82.91" rx="49.317" ry="82.91" transform="translate(-66.703 35.749) rotate(-13)" opacity="0.557" fill="url(#linear-gradient-10)"/>
      <ellipse id="Ellipse_39" data-name="Ellipse 39" cx="49.317" cy="82.91" rx="49.317" ry="82.91" transform="translate(199.272 94.347) rotate(112)" opacity="0.557" fill="url(#linear-gradient-10)"/>
    </g>
  </g>
</svg>
