<svg xmlns="http://www.w3.org/2000/svg" xmlns:xlink="http://www.w3.org/1999/xlink" width="304.562" height="293.91" viewBox="0 0 304.562 293.91">
  <defs>
    <linearGradient id="linear-gradient" x1="0.5" x2="0.5" y2="1" gradientUnits="objectBoundingBox">
      <stop offset="0" stop-color="#ff0094"/>
      <stop offset="1" stop-color="#c900d1"/>
    </linearGradient>
    <linearGradient id="linear-gradient-2" x1="0.495" y1="0.068" x2="0.5" y2="1" gradientUnits="objectBoundingBox">
      <stop offset="0" stop-color="#00a3e0"/>
      <stop offset="1" stop-color="#b900d1"/>
    </linearGradient>
    <linearGradient id="linear-gradient-3" x1="0.148" y1="0.067" x2="0.824" y2="0.72" gradientUnits="objectBoundingBox">
      <stop offset="0" stop-color="#ff0094"/>
      <stop offset="1" stop-color="#0081d1"/>
    </linearGradient>
    <linearGradient id="linear-gradient-8" x1="0.5" x2="0.5" y2="1" gradientUnits="objectBoundingBox">
      <stop offset="0" stop-color="#0089de"/>
      <stop offset="1" stop-color="#00d1c1"/>
    </linearGradient>
    <linearGradient id="linear-gradient-10" x1="0.112" y1="0.146" x2="0.897" y2="0.93" gradientUnits="objectBoundingBox">
      <stop offset="0" stop-color="#00ffe2"/>
      <stop offset="1" stop-color="#c900d1"/>
    </linearGradient>
    <linearGradient id="linear-gradient-11" x1="0.5" x2="0.5" y2="1" gradientUnits="objectBoundingBox">
      <stop offset="0" stop-color="#0089ff"/>
      <stop offset="1" stop-color="#00b9d1"/>
    </linearGradient>
  </defs>
  <g id="Group_843" data-name="Group 843" transform="translate(-893.438 -1632.813)">
    <path id="Path_749" data-name="Path 749" d="M221.277,72.155a72.155,72.155,0,1,0,72.155,72.155,72.11,72.11,0,0,0-72.155-72.155Zm0,62.364a7.976,7.976,0,1,1-7.976,7.976A8.047,8.047,0,0,1,221.277,134.518Zm29.007-25.381c-55.475,25.381-39.16,8.7-64.541,64.541-1.813,3.989,2.538,7.976,6.163,6.163,55.835-25.381,39.522-9.064,64.541-64.541A4.625,4.625,0,0,0,250.284,109.137ZM225.991,46.049V39.886h7.614a4.5,4.5,0,0,0,4.352-4.714V16.317C236.869,6.89,229.618,0,221.277,0c-8.7,0-15.954,7.251-17.042,16.679V35.17a4.8,4.8,0,0,0,4.714,4.714h7.614v6.163c-52.213,2.176-93.91,45.684-93.91,98.261a98.621,98.621,0,0,0,197.242,0c0-52.577-41.7-96.083-93.91-98.261Zm-4.714,187.1a88.834,88.834,0,1,1,88.835-88.834,88.978,88.978,0,0,1-88.835,88.834Zm4.714-26.106v-6.163c0-6.163-9.427-6.163-9.427,0v6.163a62.986,62.986,0,0,1-58.013-58.013h6.163c6.163,0,6.163-9.427,0-9.427h-6.163c2.176-30.819,27.194-55.475,58.013-58.013V87.75c0,6.163,9.427,6.163,9.427,0V81.587A63.6,63.6,0,0,1,284,139.6h-6.163c-6.163,0-6.163,9.427,0,9.427H284C281.466,179.845,256.81,204.861,225.991,207.038Z" transform="translate(789.236 1736.961) rotate(-19)" fill-rule="evenodd" fill="url(#linear-gradient)"/>
    <path id="Path_849" data-name="Path 849" d="M221.277,134.518a7.976,7.976,0,1,1-7.976,7.976A8.047,8.047,0,0,1,221.277,134.518Zm29.007-25.381c-55.475,25.381-39.16,8.7-64.541,64.541-1.813,3.989,2.538,7.976,6.163,6.163,55.835-25.381,39.522-9.064,64.541-64.541A4.625,4.625,0,0,0,250.284,109.137Z" transform="translate(789.236 1736.961) rotate(-19)" fill-rule="evenodd" fill="url(#linear-gradient-2)"/>
    <path id="Heart_Rate" data-name="Heart Rate" d="M187.942,81.668a15.73,15.73,0,0,0-10.008,3.6,15.762,15.762,0,0,0-10.008-3.6c-8.8,0-16.242,8.059-16.272,17.6-.743,11.385,9.513,20.542,21.377,31.138,1.268,1.129,2.552,2.274,3.852,3.449a1.558,1.558,0,0,0,1.036.4,1.5,1.5,0,0,0,1.067-.433q2.923-2.784,5.785-5.414c10.627-9.838,19.815-18.346,19.429-29.08,0-9.575-7.44-17.665-16.258-17.665Zm1.319,23.2-5.588-.062-1.964,5.3h0a1.528,1.528,0,0,1-1.361.975h-.077a1.548,1.548,0,0,1-1.377-.851l-3.326-7.065-.975,1.949h0a1.547,1.547,0,0,1-1.392.85h-6.906a1.547,1.547,0,0,1,0-3.094h5.947l1.933-4.25a1.547,1.547,0,0,1,2.769,0l3.171,6.74,1.083-2.692h0a1.547,1.547,0,0,1,1.438-.975h.016l6.64.077h0a1.546,1.546,0,0,1,1.531,1.563,1.5,1.5,0,0,1-1.562,1.531Z" transform="matrix(0.966, 0.259, -0.259, 0.966, 961.111, 1527.913)" fill="url(#linear-gradient-3)"/>
    <g id="Group_837" data-name="Group 837" transform="translate(-1057.567 1234.751) rotate(-50)">
      <path id="Path_833" data-name="Path 833" d="M140,268.33h37.056v2.059H140Z" transform="translate(717 1570.452)" fill="url(#linear-gradient)"/>
      <path id="Path_836" data-name="Path 836" d="M177.056,268.33H140v2.059h37.056Z" transform="translate(754.056 1570.452)" fill="url(#linear-gradient)"/>
      <path id="Path_834" data-name="Path 834" d="M338.33,70h2.059v37.056H338.33Z" transform="translate(536.168 1751.283)" fill="url(#linear-gradient)"/>
      <path id="Path_837" data-name="Path 837" d="M340.389,70H338.33v37.056h2.059Z" transform="translate(573.226 1751.283)" fill="url(#linear-gradient)"/>
      <path id="Path_832" data-name="Path 832" d="M177.06,167.4c-4.608,0-6.406-5.824-8.145-11.457-3.395-11.3-5.029-11.3-8.42,0-1.739,5.632-3.537,11.457-8.145,11.457s-6.4-5.824-8.141-11.457c-.987-3.2-2.639-8.552-4.206-8.552v-4.117c4.606,0,6.4,5.824,8.14,11.457.987,3.2,2.639,8.553,4.206,8.553s3.223-5.355,4.21-8.553c1.739-5.632,3.537-11.457,8.144-11.457s6.406,5.824,8.145,11.457c.988,3.2,2.641,8.553,4.21,8.553Z" transform="translate(716.996 1684.479)" fill="url(#linear-gradient-8)"/>
      <path id="Path_835" data-name="Path 835" d="M140,167.4c4.608,0,6.406-5.824,8.145-11.457,3.395-11.3,5.029-11.3,8.42,0,1.739,5.632,3.537,11.457,8.145,11.457s6.4-5.824,8.141-11.457c.987-3.2,2.639-8.552,4.206-8.552v-4.117c-4.606,0-6.4,5.824-8.14,11.457-.987,3.2-2.639,8.553-4.206,8.553s-3.223-5.355-4.21-8.553c-1.739-5.632-3.537-11.457-8.144-11.457s-6.406,5.824-8.145,11.457c-.988,3.2-2.641,8.553-4.21,8.553Z" transform="translate(754.052 1684.479)" fill="url(#linear-gradient-8)"/>
    </g>
    <path id="Path_838" data-name="Path 838" d="M124.662,33.6a1.5,1.5,0,0,0-1.426,1.454V48.891L121.3,51.019c.129-3.207.316-6.415.5-9.637a1.508,1.508,0,0,0-1.786-1.484c-6.381,1.593-11.084,7.168-13.779,13.8a34.15,34.15,0,0,0-1.666,21.06,1.483,1.483,0,0,0,1.381,1.064,29.494,29.494,0,0,0,8.271-2.638c2.636-1.29,6.852-3.07,7.1-6.07-.216-3.882-.224-7.774-.135-11.677l3.5-3.852L128.25,55.5c.087,3.882.065,7.754-.15,11.617.615,3.379,4.553,4.933,7.1,6.07,2.723.938,5.539,2.607,8.271,2.638a1.483,1.483,0,0,0,1.381-1.064,34.152,34.152,0,0,0-1.666-21.06c-2.7-6.637-7.4-12.212-13.779-13.8a1.635,1.635,0,0,0-1.786,1.484c.181,3.247.366,6.481.5,9.713l-2-2.2V35.056a1.5,1.5,0,0,0-1.456-1.454Z" transform="translate(1064.641 1756.169) rotate(14)" fill="url(#linear-gradient-10)"/>
    <g id="Group_838" data-name="Group 838" transform="matrix(0.799, -0.602, 0.602, 0.799, -18184.914, 13680.66)">
      <path id="Path_839" data-name="Path 839" d="M231.8,40.309a14.6,14.6,0,0,0-4.819-10.8V17.545A3.534,3.534,0,0,0,223.437,14H211.085a3.534,3.534,0,0,0-3.545,3.545V29.508a14.514,14.514,0,0,0,0,21.6V63.073a3.534,3.534,0,0,0,3.545,3.545h12.351a3.534,3.534,0,0,0,3.545-3.545V51.109A14.4,14.4,0,0,0,231.8,40.309Zm-26.586,0a12.074,12.074,0,1,1,12.074,12.074A12.1,12.1,0,0,1,205.214,40.309Z" transform="translate(22162.121 2054)" fill="url(#linear-gradient-11)"/>
      <path id="Path_840" data-name="Path 840" d="M312.794,201.47a2.21,2.21,0,1,0,3.379,2.825l3.379.609h.166a1,1,0,0,0,.942-.775.938.938,0,0,0-.775-1.108l-3.379-.609a2.181,2.181,0,0,0-1.994-1.662l-2.215-5.594a.931.931,0,0,0-1.717.72Z" transform="translate(22065.01 1891.288)" fill="url(#linear-gradient)"/>
      <path id="Path_841" data-name="Path 841" d="M342.811,168.885a.886.886,0,1,1-.886-.886.886.886,0,0,1,.886.886" transform="translate(22037.486 1915.232)" fill="url(#linear-gradient)"/>
      <path id="Path_842" data-name="Path 842" d="M415.611,198.565a.886.886,0,1,1-.886-.886.886.886,0,0,1,.886.886" transform="translate(21971.885 1888.488)" fill="url(#linear-gradient)"/>
      <path id="Path_843" data-name="Path 843" d="M445.851,271.925a.886.886,0,1,1-.886-.886.886.886,0,0,1,.886.886" transform="translate(21944.637 1822.384)" fill="url(#linear-gradient)"/>
      <path id="Path_844" data-name="Path 844" d="M416.171,344.725a.886.886,0,1,1-.886-.886.886.886,0,0,1,.886.886" transform="translate(21971.381 1756.784)" fill="url(#linear-gradient)"/>
      <path id="Path_845" data-name="Path 845" d="M342.811,374.965a.886.886,0,1,1-.886-.886.886.886,0,0,1,.886.886" transform="translate(22037.486 1729.535)" fill="url(#linear-gradient)"/>
      <path id="Path_846" data-name="Path 846" d="M270.011,345.285a.886.886,0,1,1-.886-.886.886.886,0,0,1,.886.886" transform="translate(22103.086 1756.279)" fill="url(#linear-gradient)"/>
      <path id="Path_847" data-name="Path 847" d="M239.771,271.925a.886.886,0,1,1-.886-.886.886.886,0,0,1,.886.886" transform="translate(22130.334 1822.384)" fill="url(#linear-gradient)"/>
      <path id="Path_848" data-name="Path 848" d="M269.451,199.125a.886.886,0,1,1-.886-.886.886.886,0,0,1,.886.886" transform="translate(22103.59 1887.983)" fill="url(#linear-gradient)"/>
    </g>
  </g>
</svg>
