<svg xmlns="http://www.w3.org/2000/svg" xmlns:xlink="http://www.w3.org/1999/xlink" width="223.688" height="225.122" viewBox="0 0 223.688 225.122">
  <defs>
    <linearGradient id="linear-gradient" x1="0.5" x2="0.5" y2="1" gradientUnits="objectBoundingBox">
      <stop offset="0" stop-color="#ff0094"/>
      <stop offset="1" stop-color="#c900d1"/>
    </linearGradient>
    <linearGradient id="linear-gradient-2" x1="0.658" y1="1" x2="0.01" y2="-0.032" xlink:href="#linear-gradient"/>
    <linearGradient id="linear-gradient-4" x1="0.5" x2="0.908" y2="0.839" gradientUnits="objectBoundingBox">
      <stop offset="0" stop-color="#00e2ff"/>
      <stop offset="1" stop-color="#b100ff"/>
    </linearGradient>
    <linearGradient id="linear-gradient-5" x1="0.134" y1="0.592" x2="0.932" y2="1" gradientUnits="objectBoundingBox">
      <stop offset="0" stop-color="#00ceff"/>
      <stop offset="1" stop-color="#c900d1"/>
    </linearGradient>
    <linearGradient id="linear-gradient-6" x1="0.5" x2="2.063" y2="1.755" gradientUnits="objectBoundingBox">
      <stop offset="0" stop-color="#00d8ff"/>
      <stop offset="1" stop-color="#c900d1"/>
    </linearGradient>
    <linearGradient id="linear-gradient-7" x1="-0.485" x2="1.49" y2="1.205" gradientUnits="objectBoundingBox">
      <stop offset="0" stop-color="#00ebff"/>
      <stop offset="1" stop-color="#c900d1"/>
    </linearGradient>
    <linearGradient id="linear-gradient-8" x1="-0.692" y1="-0.478" x2="2.274" y2="1.76" gradientUnits="objectBoundingBox">
      <stop offset="0" stop-color="#6c6de6"/>
      <stop offset="1" stop-color="#c900d1"/>
    </linearGradient>
    <linearGradient id="linear-gradient-9" x1="0.307" y1="0.184" x2="0.872" y2="0.954" gradientUnits="objectBoundingBox">
      <stop offset="0" stop-color="#00ff9d"/>
      <stop offset="1" stop-color="#d10099"/>
    </linearGradient>
    <linearGradient id="linear-gradient-10" x1="0.5" x2="0.5" y2="1" gradientUnits="objectBoundingBox">
      <stop offset="0" stop-color="#ff0094"/>
      <stop offset="1" stop-color="#00d1b1"/>
    </linearGradient>
    <linearGradient id="linear-gradient-11" x1="0.5" x2="0.5" y2="1" gradientUnits="objectBoundingBox">
      <stop offset="0" stop-color="#00fff5"/>
      <stop offset="1" stop-color="#c900d1"/>
    </linearGradient>
    <clipPath id="clip-path">
      <path id="Union_2" data-name="Union 2" d="M-20182,427.735l1.287-8.97a47.677,47.677,0,0,1,21.973-33.753,17.983,17.983,0,0,0,4.461-4,87.969,87.969,0,0,1-27.168-63.515V276.58a50.438,50.438,0,0,1,50.387-50.382h3.693a17.9,17.9,0,0,1,14.3-7.2h28.791a25.22,25.22,0,0,1,25.193,25.193,25.193,25.193,0,0,1-14.623,22.833,63.53,63.53,0,0,1,7.43,29.747,36.669,36.669,0,0,0,1.094,8.93l3.207,12.83-9.492,3.161a3.606,3.606,0,0,0-2.445,3.09l-1.318,14.481a26.178,26.178,0,0,1-3.748,11.33,51.923,51.923,0,0,0,29.662,23.051l17.074,5.121a60.216,60.216,0,0,1,40.727,41.771h33.207v7.2Zm90.234-66.519a55.21,55.21,0,0,0,31.18,24.165l24.758,7.425a38.416,38.416,0,0,1,26.363,27.731h10.455a53.044,53.044,0,0,0-35.309-34.873l-17.074-5.126a59.049,59.049,0,0,1-32.457-24.14A25.962,25.962,0,0,1-20091.768,361.217Zm45.23,44.334a28.992,28.992,0,0,1,15.094,14.987h14.6A31.341,31.341,0,0,0-20037.9,399.7l-24.758-7.425a62.444,62.444,0,0,1-36.453-29.418c-.693.056-1.387.1-2.1.1a27.882,27.882,0,0,1-4.666-.4v16.274l7.633,4.239a66.34,66.34,0,0,1,30.932,37.466h27.721a21.717,21.717,0,0,0-9.785-8.372l-14.734-6.316,2.838-6.615Zm-108.391-14.44a43.008,43.008,0,0,1,23.268,29.428h56.764a59.275,59.275,0,0,0-9.467-16.608,47.1,47.1,0,0,1-14.2,2.213,46.974,46.974,0,0,1-33.445-13.858,41.62,41.62,0,0,0-10.834-7.805l-3.8-1.9A25.064,25.064,0,0,1-20154.928,391.11Zm-18.666,28.673-.105.755h34.584a35.676,35.676,0,0,0-22.357-24.307A40.509,40.509,0,0,0-20173.594,419.783Zm20.939-115.026a17.2,17.2,0,0,0,11.781,16.345l12.246,4.082-7.535,9.416a35.8,35.8,0,0,0-7.709,26.065l.658,6.574a25.26,25.26,0,0,1-.68,8.671l4.27,2.132a48.881,48.881,0,0,1,12.7,9.158,39.849,39.849,0,0,0,28.359,11.746,39.677,39.677,0,0,0,8.584-.962,59.966,59.966,0,0,0-11.75-8.621l-11.336-6.3V360.356l-12.141-4.852,2.674-6.681,13.93,5.572a19.263,19.263,0,0,0,7.166,1.368,18.811,18.811,0,0,0,18.518-14.395h-4.107a16.531,16.531,0,0,1-14.865-9.188l6.438-3.221a9.374,9.374,0,0,0,8.428,5.207h5.025l.91-10.034a10.8,10.8,0,0,1,7.34-9.269l3.166-1.054-1.59-6.362a44.062,44.062,0,0,1-1.307-10.677h0a56.263,56.263,0,0,0-7.3-27.66,24.791,24.791,0,0,1-3.5.273h-27.244a17.942,17.942,0,0,0-17.9,16.208l-2.406,24.1-9.588-9.583a6.538,6.538,0,0,0-4.654-1.93A6.582,6.582,0,0,0-20152.654,304.757Z" transform="translate(21103 1023.23)" fill="url(#linear-gradient)"/>
    </clipPath>
    <linearGradient id="linear-gradient-12" x1="0.5" x2="0.025" y2="1.607" gradientUnits="objectBoundingBox">
      <stop offset="0" stop-color="#3100ff"/>
      <stop offset="1" stop-color="#c900d1"/>
    </linearGradient>
    <linearGradient id="linear-gradient-14" x1="0.5" x2="0.5" y2="1" gradientUnits="objectBoundingBox">
      <stop offset="0" stop-color="#00baff"/>
      <stop offset="1" stop-color="#c900d1"/>
    </linearGradient>
    <clipPath id="clip-path-2">
      <path id="Union_5" data-name="Union 5" d="M-20182,427.735l1.287-8.97a47.677,47.677,0,0,1,21.973-33.753,17.983,17.983,0,0,0,4.461-4,87.969,87.969,0,0,1-27.168-63.515V276.58a50.438,50.438,0,0,1,50.387-50.382h3.7a17.884,17.884,0,0,1,14.293-7.2h28.791a25.22,25.22,0,0,1,25.193,25.193,25.193,25.193,0,0,1-14.623,22.833,63.53,63.53,0,0,1,7.43,29.747,36.669,36.669,0,0,0,1.094,8.93l3.207,12.83-9.492,3.161a3.6,3.6,0,0,0-2.441,3.09l-1.322,14.481a26.178,26.178,0,0,1-3.748,11.33,51.919,51.919,0,0,0,29.666,23.051l17.074,5.121a60.218,60.218,0,0,1,40.723,41.771h33.207v7.2Zm114.7-7.2h.182c-.018-.019-.037-.037-.055-.056-.072-.077-.148-.156-.223-.236C-20067.369,420.343-20067.336,420.44-20067.3,420.538Zm-87.619-29.428a43.013,43.013,0,0,1,23.264,29.428h56.764a59.083,59.083,0,0,0-9.467-16.608,47.092,47.092,0,0,1-14.2,2.213,46.976,46.976,0,0,1-33.449-13.858,41.555,41.555,0,0,0-10.834-7.805l-3.8-1.9A25.088,25.088,0,0,1-20154.924,391.11Zm-18.67,28.673-.105.755h34.584a35.668,35.668,0,0,0-22.357-24.307A40.509,40.509,0,0,0-20173.594,419.783Zm20.939-115.026a17.2,17.2,0,0,0,11.781,16.345l12.246,4.082-7.531,9.416a35.762,35.762,0,0,0-7.709,26.065l.654,6.574a25.164,25.164,0,0,1-.68,8.671l4.27,2.132a48.816,48.816,0,0,1,12.7,9.158,39.852,39.852,0,0,0,28.363,11.746,39.642,39.642,0,0,0,8.58-.962,59.966,59.966,0,0,0-11.75-8.621l-11.336-6.3V360.356l-12.141-4.852,2.674-6.681,13.93,5.572a19.278,19.278,0,0,0,7.166,1.368,18.811,18.811,0,0,0,18.518-14.395h-4.107a16.531,16.531,0,0,1-14.865-9.188l6.438-3.221a9.378,9.378,0,0,0,8.428,5.207h5.029l.906-10.034a10.8,10.8,0,0,1,7.34-9.269l3.166-1.054-1.586-6.362a43.87,43.87,0,0,1-1.307-10.677,56.3,56.3,0,0,0-7.3-27.66,24.892,24.892,0,0,1-3.5.273h-27.244a17.942,17.942,0,0,0-17.9,16.208l-2.406,24.1-9.588-9.583a6.536,6.536,0,0,0-4.65-1.93A6.583,6.583,0,0,0-20152.654,304.757Zm68.678,51.753.135-.024.051.005-.061-.091Z" transform="translate(21103 1023.231)" fill="url(#linear-gradient-2)"/>
    </clipPath>
    <linearGradient id="linear-gradient-22" x1="0.5" x2="0.5" y2="1" gradientUnits="objectBoundingBox">
      <stop offset="0" stop-color="#00baff"/>
      <stop offset="0.547" stop-color="#c206d3"/>
      <stop offset="1" stop-color="#c900d1"/>
    </linearGradient>
    <linearGradient id="linear-gradient-23" x1="0.356" y1="0.034" x2="0.5" y2="1" gradientUnits="objectBoundingBox">
      <stop offset="0" stop-color="#e400b2"/>
      <stop offset="1" stop-color="#f300a1"/>
    </linearGradient>
  </defs>
  <g id="Group_839" data-name="Group 839" transform="translate(-920.998 -1225.844)">
    <path id="Union_3" data-name="Union 3" d="M-20182,427.735l1.287-8.97a47.677,47.677,0,0,1,21.973-33.753,17.983,17.983,0,0,0,4.461-4,87.969,87.969,0,0,1-27.168-63.515V276.58a50.438,50.438,0,0,1,50.387-50.382h3.7a17.884,17.884,0,0,1,14.293-7.2h28.791a25.22,25.22,0,0,1,25.193,25.193,25.193,25.193,0,0,1-14.623,22.833,63.53,63.53,0,0,1,7.43,29.747,36.669,36.669,0,0,0,1.094,8.93l3.207,12.83-9.492,3.161a3.6,3.6,0,0,0-2.441,3.09l-1.322,14.481a26.178,26.178,0,0,1-3.748,11.33,51.919,51.919,0,0,0,29.666,23.051l17.074,5.121a60.218,60.218,0,0,1,40.723,41.771h33.207v7.2Zm114.7-7.2h.182c-.018-.019-.037-.037-.055-.056-.072-.077-.148-.156-.223-.236C-20067.369,420.343-20067.336,420.44-20067.3,420.538Zm-87.619-29.428a43.013,43.013,0,0,1,23.264,29.428h56.764a59.083,59.083,0,0,0-9.467-16.608,47.092,47.092,0,0,1-14.2,2.213,46.976,46.976,0,0,1-33.449-13.858,41.555,41.555,0,0,0-10.834-7.805l-3.8-1.9A25.088,25.088,0,0,1-20154.924,391.11Zm-18.67,28.673-.105.755h34.584a35.668,35.668,0,0,0-22.357-24.307A40.509,40.509,0,0,0-20173.594,419.783Zm20.939-115.026a17.2,17.2,0,0,0,11.781,16.345l12.246,4.082-7.531,9.416a35.762,35.762,0,0,0-7.709,26.065l.654,6.574a25.164,25.164,0,0,1-.68,8.671l4.27,2.132a48.816,48.816,0,0,1,12.7,9.158,39.852,39.852,0,0,0,28.363,11.746,39.642,39.642,0,0,0,8.58-.962,59.966,59.966,0,0,0-11.75-8.621l-11.336-6.3V360.356l-12.141-4.852,2.674-6.681,13.93,5.572a19.278,19.278,0,0,0,7.166,1.368,18.811,18.811,0,0,0,18.518-14.395h-4.107a16.531,16.531,0,0,1-14.865-9.188l6.438-3.221a9.378,9.378,0,0,0,8.428,5.207h5.029l.906-10.034a10.8,10.8,0,0,1,7.34-9.269l3.166-1.054-1.586-6.362a43.87,43.87,0,0,1-1.307-10.677,56.3,56.3,0,0,0-7.3-27.66,24.892,24.892,0,0,1-3.5.273h-27.244a17.942,17.942,0,0,0-17.9,16.208l-2.406,24.1-9.588-9.583a6.536,6.536,0,0,0-4.65-1.93A6.583,6.583,0,0,0-20152.654,304.757Zm68.678,51.753.135-.024.051.005-.061-.091Z" transform="translate(21103 1023.231)" fill="url(#linear-gradient-2)"/>
    <g id="Group_833" data-name="Group 833" transform="translate(-21291.238 -774.156)">
      <path id="Path_803" data-name="Path 803" d="M282.047,239.849a3.605,3.605,0,0,1-3.6-3.6h-7.2a10.8,10.8,0,1,0,21.593,0h-7.2A3.605,3.605,0,0,1,282.047,239.849Z" transform="translate(22020.715 1859.311)" fill="#fe0096"/>
      <path id="Path_805" data-name="Path 805" d="M451.333,323.75H393.75v7.2h57.583a28.824,28.824,0,0,1,28.791,28.791,14.4,14.4,0,0,1-28.791,0,7.2,7.2,0,1,1,14.4,0h7.2a14.4,14.4,0,1,0-28.791,0,21.593,21.593,0,0,0,43.187,0A36.031,36.031,0,0,0,451.333,323.75Z" transform="translate(21948.6 1807.8)" fill="url(#linear-gradient-4)"/>
      <path id="Path_806" data-name="Path 806" d="M458.036,268.146H411.25v7.2h46.786a10.8,10.8,0,0,0,0-21.593h-3.6v7.2h3.6a3.6,3.6,0,0,1,0,7.2Z" transform="translate(21938.299 1849.008)" fill="url(#linear-gradient-5)"/>
      <path id="Path_807" data-name="Path 807" d="M376.25,358.75h7.2v7.2h-7.2Z" transform="translate(21958.902 1787.195)" fill="url(#linear-gradient-6)"/>
      <path id="Path_808" data-name="Path 808" d="M411.25,358.75h7.2v7.2h-7.2Z" transform="translate(21938.299 1787.195)" fill="url(#linear-gradient-7)"/>
      <path id="Path_809" data-name="Path 809" d="M446.25,358.75h7.2v7.2h-7.2Z" transform="translate(21917.693 1787.195)" fill="url(#linear-gradient-8)"/>
      <path id="Path_810" data-name="Path 810" d="M392.571,83.825l17.684-20.633,14.169-2.664a32.37,32.37,0,0,0,26.6-31.867V3.914l-27.8,12.636A32.51,32.51,0,0,0,404.235,46.17l.464,12.442L387.108,79.137ZM426.2,23.1l17.624-8.008V28.664a25.183,25.183,0,0,1-20.705,24.789L411.793,55.58l-.36-9.545A25.255,25.255,0,0,1,426.2,23.1Z" transform="translate(21952.51 1996.086)" fill="url(#linear-gradient-9)"/>
      <path id="Path_811" data-name="Path 811" d="M536.157,107.455A21.565,21.565,0,0,0,519.8,128.4v6.054L510.06,144.2l5.088,5.088,9.923-9.923,11.8-1.475a21.628,21.628,0,0,0,18.917-21.428V102.547Zm12.437,9.008a14.415,14.415,0,0,1-12.611,14.285L527,131.87V128.4a14.375,14.375,0,0,1,10.9-13.963l10.689-2.675Z" transform="translate(21880.129 1938.021)" fill="url(#linear-gradient-10)"/>
      <path id="Path_812" data-name="Path 812" d="M579.547,245h-10.8v10.8a10.81,10.81,0,0,0,10.8,10.8h10.8V255.8A10.81,10.81,0,0,0,579.547,245Zm3.6,14.4h-3.6a3.605,3.605,0,0,1-3.6-3.6v-3.6h3.6a3.605,3.605,0,0,1,3.6,3.6Z" transform="translate(21845.578 1854.16)" fill="url(#linear-gradient-11)"/>
    </g>
    <g id="Mask_Group_17" data-name="Mask Group 17" clip-path="url(#clip-path)">
      <path id="Path_817" data-name="Path 817" d="M53.445,0c29.517,0,52.328,33.035,53.445,82s-23.928,82-53.445,82S0,127.287,0,82,23.928,0,53.445,0Z" transform="translate(1053.035 1132.725) rotate(48)" opacity="0.562" fill="url(#linear-gradient-12)"/>
      <ellipse id="Ellipse_45" data-name="Ellipse 45" cx="46" cy="82" rx="46" ry="82" transform="translate(921.875 1195.791) rotate(48)" fill="url(#linear-gradient-12)"/>
      <ellipse id="Ellipse_44" data-name="Ellipse 44" cx="47.5" cy="45.01" rx="47.5" ry="45.01" transform="translate(911.891 1298.064) rotate(48)" opacity="0.7" fill="url(#linear-gradient-14)"/>
      <ellipse id="Ellipse_46" data-name="Ellipse 46" cx="47.5" cy="45.01" rx="47.5" ry="45.01" transform="translate(929.432 1195.791) rotate(48)" opacity="0.7" fill="url(#linear-gradient-14)"/>
      <path id="Path_816" data-name="Path 816" d="M69.209,0C104.86,8.866,60.7,43.113,119.651,94.386c11.115,47.42-12.219,69.652-50.442,69.652S0,127.316,0,82.019,30.986,0,69.209,0Z" transform="translate(966.898 1226.841) rotate(48)" opacity="0.413" fill="url(#linear-gradient-14)"/>
    </g>
    <g id="Mask_Group_18" data-name="Mask Group 18" clip-path="url(#clip-path-2)">
      <path id="Path_819" data-name="Path 819" d="M55.369,45.635c29.517,0,50.4-12.6,51.522,36.365s-23.928,82-53.445,82S0,127.287,0,82,25.851,45.635,55.369,45.635Z" transform="translate(924.711 1403.464) rotate(-62)" opacity="0.562" fill="url(#linear-gradient-12)"/>
      <ellipse id="Ellipse_47" data-name="Ellipse 47" cx="46" cy="82" rx="46" ry="82" transform="translate(999.289 1442.106) rotate(-62)" fill="url(#linear-gradient-12)"/>
      <ellipse id="Ellipse_49" data-name="Ellipse 49" cx="46" cy="35" rx="46" ry="35" transform="translate(1038.286 1413.237) rotate(-62)" fill="url(#linear-gradient-12)"/>
      <ellipse id="Ellipse_48" data-name="Ellipse 48" cx="47.5" cy="45.01" rx="47.5" ry="45.01" transform="translate(1084.838 1446.629) rotate(-62)" opacity="0.7" fill="url(#linear-gradient-14)"/>
      <path id="Path_828" data-name="Path 828" d="M47.5,0C73.734,0,95,20.152,95,45.01s-21.266,45.01-47.5,45.01S-3.032,67.99-3.032,43.132,21.266,0,47.5,0Z" transform="translate(976.17 1397.726) rotate(-62)" opacity="0.7" fill="url(#linear-gradient-14)"/>
      <path id="Path_820" data-name="Path 820" d="M69.209,0C104.86,8.866,60.7,43.113,119.651,94.386c11.115,47.42-12.219,69.652-50.442,69.652S0,127.316,0,82.019,30.986,0,69.209,0Z" transform="translate(1002.096 1415.152) rotate(-62)" opacity="0.413" fill="url(#linear-gradient-22)"/>
    </g>
    <path id="Subtraction_5" data-name="Subtraction 5" d="M-19931.154,350.534h-170.578l-.5-7.192h54.5a59.27,59.27,0,0,0-9.477-16.608,47.239,47.239,0,0,1-14.2,2.208,47.1,47.1,0,0,1-17.66-3.4,47.073,47.073,0,0,1-15.078-9.766l-.705-10.206a48.741,48.741,0,0,1,5.084,4.425,39.83,39.83,0,0,0,28.359,11.746,39.808,39.808,0,0,0,8.58-.957,60.052,60.052,0,0,0-11.75-8.621l-11.342-6.3V283.155l-12.125-4.847,2.67-6.686,13.924,5.577a19.254,19.254,0,0,0,7.166,1.368,19.634,19.634,0,0,0,6.443-1.074,18.632,18.632,0,0,0,5.465-2.988,18.5,18.5,0,0,0,4.143-4.558,18.78,18.78,0,0,0,2.469-5.779h-4.109a16.574,16.574,0,0,1-14.865-9.183l6.447-3.221a9.363,9.363,0,0,0,8.418,5.2h5.029l.912-10.034a10.835,10.835,0,0,1,7.334-9.264l3.166-1.054-1.578-6.362a43.426,43.426,0,0,1-1.229-8.008l7.111-3.242v.572a36.657,36.657,0,0,0,1.1,8.93l3.2,12.83-9.488,3.166a3.624,3.624,0,0,0-2.447,3.085l-1.316,14.486a26.007,26.007,0,0,1-3.754,11.325l.008.014a.208.208,0,0,1,.018.026l.006.007s0,.006,0,.008.006,0,.006.01a.046.046,0,0,1,.01.01.019.019,0,0,0,.006.01h0l0,0a.019.019,0,0,1,.01.006h0l0,0a.018.018,0,0,0,.01.01l-.016.02,0,.006v0s0,.007-.006.01l0,.008-.021.033a25.443,25.443,0,0,1-4.867,5.647l-.01-.01-.016-.025c-.543.482-1.105.942-1.672,1.368a26.487,26.487,0,0,1-9.1,4.123,31.815,31.815,0,0,1-7.633.912,26.55,26.55,0,0,1-3.277-.182c-.111-.016-.227-.038-.314-.056h-.014l-.006,16.274.1.056a.314.314,0,0,0,.016.091c.574.28,1.143.572,1.723.872l4.553,2.522c18.414,10.935,26.789,25.225,30.143,32.771.643,1.493,1.27,3.131,1.863,4.867v.01l.031.1,0,.005.029.1,0,.015c.039.124.068.228.094.333h0v.01h1.246l.83.005c.8,0,1.8,0,3.055.005,1.537,0,3.449,0,5.865.005h.188c1.338,0,2.82,0,4.459.005h.115l4.34,0c8.678.01,20.965.027,33.641.045h1.088l33.73.045,1.586.005,18.857.025v6.994Zm-133.16-118.759a10.58,10.58,0,0,1-2.289-.248l11.756-5.354A10.818,10.818,0,0,1-20064.314,231.775Z" transform="translate(21075.836 1100.428)" fill="url(#linear-gradient-23)"/>
  </g>
</svg>
