<?xml version="1.0" encoding="utf-8"?>
<!-- Generator: Adobe Illustrator 26.0.3, SVG Export Plug-In . SVG Version: 6.00 Build 0)  -->
<svg version="1.1" id="Layer_1" xmlns="http://www.w3.org/2000/svg" xmlns:xlink="http://www.w3.org/1999/xlink" x="0px" y="0px"
	 width="18.1px" height="12.9px" viewBox="0 0 18.1 12.9" style="enable-background:new 0 0 18.1 12.9;" xml:space="preserve">
<style type="text/css">
	.st0{fill:#FFFFFF;}
</style>
<path id="Exclusion_1" class="st0" d="M9.1,12.9c-2.4,0-4.7-0.1-7.1-0.4c-0.8-0.2-1.4-0.8-1.6-1.6C0.1,9.4,0,7.9,0,6.4
	C0,5,0.1,3.5,0.4,2C0.6,1.2,1.2,0.6,2,0.4C4.3,0.1,6.7,0,9.1,0c2.4,0,4.7,0.1,7.1,0.4c0.8,0.2,1.4,0.8,1.6,1.6
	C18,3.5,18.1,5,18.1,6.4c0,1.5-0.1,3-0.4,4.4c-0.2,0.8-0.8,1.4-1.6,1.6C13.8,12.8,11.4,12.9,9.1,12.9z M7.2,3.7L7.2,3.7v5.5l4.7-2.8
	L7.2,3.7L7.2,3.7z"/>
</svg>
