<svg xmlns="http://www.w3.org/2000/svg" width="183.582" height="77" viewBox="0 0 183.582 77">
  <g id="Logo" transform="translate(0 0)">
    <path id="Subtraction_1" data-name="Subtraction 1" d="M41.04,45.041H4a3.981,3.981,0,0,1-2.211-.666c3.124-4.85,5.65-12.494,8.093-19.886l.226-.683.446-1.35,0-.012A117.3,117.3,0,0,1,15.884,8.2a17.453,17.453,0,0,1,2.974-4.5,4.82,4.82,0,0,1,3.455-1.679h.415a4.872,4.872,0,0,1,3.5,1.684,17.107,17.107,0,0,1,2.963,4.5,112.7,112.7,0,0,1,5.177,14.137q.292.908.585,1.82l.075.234c2.414,7.485,4.911,15.225,8.088,20.073A3.993,3.993,0,0,1,41.04,45.041ZM.458,42.9v0A4.011,4.011,0,0,1,0,41.04V4A4,4,0,0,1,4,0H20.14C15.168,2.344,11.789,12.563,8.212,23.382l0,.006C5.824,30.606,3.356,38.07.459,42.9Zm44.58-7.661a75.226,75.226,0,0,1-4.461-12.35c-2.634-8.064-4.586-13.176-6.331-16.575C32.479,2.876,30.795.928,28.783,0H41.04a4,4,0,0,1,4,4V35.241Z" transform="translate(0 15.488)" fill="#fff"/>
    <text id="allos" transform="translate(58.582 60)" fill="#fff" font-size="61" font-family="SofiaPro-UltraLight, Sofia Pro" font-weight="100"><tspan x="0" y="0">allos</tspan></text>
  </g>
</svg>
