<?xml version="1.0" encoding="utf-8"?>
<!-- Generator: Adobe Illustrator 26.1.0, SVG Export Plug-In . SVG Version: 6.00 Build 0)  -->
<svg version="1.1" id="Layer_1" xmlns="http://www.w3.org/2000/svg" xmlns:xlink="http://www.w3.org/1999/xlink" x="0px" y="0px"
	 width="183.6px" height="77px" viewBox="0 0 183.6 77" style="enable-background:new 0 0 183.6 77;" xml:space="preserve">
<style type="text/css">
	.st0{fill:#FFFFFF;}
	.st1{enable-background:new    ;}
</style>
<g id="Logo" transform="translate(0 0)">
	<path id="Subtraction_1" class="st0" d="M41,60.5H4c-0.8,0-1.6-0.2-2.2-0.7C4.9,55,7.4,47.4,9.9,40l0.2-0.7l0.4-1.3v0
		c1.5-4.9,3.2-9.6,5.3-14.2c0.8-1.6,1.8-3.2,3-4.5c0.9-1,2.1-1.6,3.5-1.7h0.4c1.3,0.1,2.6,0.7,3.5,1.7c1.2,1.3,2.2,2.9,3,4.5
		c2,4.6,3.8,9.3,5.2,14.1c0.2,0.6,0.4,1.2,0.6,1.8l0.1,0.2c2.4,7.5,4.9,15.2,8.1,20.1C42.5,60.3,41.8,60.5,41,60.5z M0.5,58.4
		L0.5,58.4C0.2,57.8,0,57.2,0,56.5v-37c0-2.2,1.8-4,4-4h16.1c-5,2.3-8.4,12.6-11.9,23.4v0C5.8,46.1,3.4,53.6,0.5,58.4L0.5,58.4z
		 M45,50.7c-1.8-4-3.3-8.1-4.5-12.3c-2.6-8.1-4.6-13.2-6.3-16.6c-1.8-3.4-3.5-5.4-5.5-6.3H41c2.2,0,4,1.8,4,4L45,50.7L45,50.7z"/>
	<g class="st1">
		<path class="st0" d="M89.6,31.5h1.8V60h-1.8v-7c-2.5,4.6-7.4,7.7-13.1,7.7c-8.2,0-14.8-6.8-14.8-15c0-8.2,6.6-14.9,14.8-14.9
			c5.7,0,10.6,3.2,13.1,7.7V31.5z M89.6,46c0-7.8-5.9-13.4-13.1-13.4c-7.1,0-13,6-13,13.1c0,7.2,5.9,13.2,13,13.2
			C83.7,58.9,89.6,53.4,89.6,46z"/>
		<path class="st0" d="M102.1,60V16h1.8v44H102.1z"/>
		<path class="st0" d="M114.5,60V16h1.8v44H114.5z"/>
		<path class="st0" d="M124.9,45.7c0-9,6.7-14.9,14.9-14.9c8.1,0,14.9,5.9,14.9,14.9c0,9.1-6.8,15.1-14.9,15.1
			C131.6,60.7,124.9,54.8,124.9,45.7z M152.8,45.7c0-7.9-5.9-13.1-13.1-13.1c-7.2,0-13.1,5.1-13.1,13.1c0,8,5.9,13.2,13.1,13.2
			C146.9,58.9,152.8,53.7,152.8,45.7z"/>
		<path class="st0" d="M160.6,53.5h1.8c0.9,2.5,3,5.4,8.2,5.4c4.8,0,7.9-2.6,7.9-6.3c0-2.6-1.5-4.8-5.5-5.9l-4.3-1
			c-3.1-0.7-6.9-2.3-6.9-7.4c0-4.5,3.8-7.6,8.8-7.6c4.7,0,8.2,2.7,8.7,7h-1.8c-0.4-3.1-3.2-5.1-6.8-5.1c-4.1,0-7,2.4-7,5.7
			c0,3.8,3.1,5.2,5.5,5.7l4.2,1c5.1,1.2,7,4.3,7,7.6c0,4.8-3.8,8.1-9.7,8.1C166.1,60.7,161.6,58.4,160.6,53.5z"/>
	</g>
</g>
</svg>
