<?xml version="1.0" encoding="utf-8"?>
<!-- Generator: Adobe Illustrator 26.0.3, SVG Export Plug-In . SVG Version: 6.00 Build 0)  -->
<svg version="1.1" id="Layer_1" xmlns="http://www.w3.org/2000/svg" xmlns:xlink="http://www.w3.org/1999/xlink" x="0px" y="0px"
	 width="1403.8px" height="322px" viewBox="0 0 1403.8 322" style="enable-background:new 0 0 1403.8 322;" xml:space="preserve">
<style type="text/css">
	.st0{fill:url(#BreathCurve_04_00000052804485471722129170000008526599813191458441_);}
	.st1{fill:none;stroke:#FFFFFF;stroke-width:2;stroke-miterlimit:10;}
</style>
<g id="Layer_1_00000050649515454824087490000000026870478412187520_">
	
		<linearGradient id="BreathCurve_04_00000041259632541881053350000010347813588973394832_" gradientUnits="userSpaceOnUse" x1="984.7967" y1="231.4449" x2="984.7967" y2="232.4454" gradientTransform="matrix(1400.0168 0 0 244.9729 -1378031.625 -56659.7812)">
		<stop  offset="0" style="stop-color:#FF276A"/>
		<stop  offset="1" style="stop-color:#E557FF"/>
	</linearGradient>
	<path id="BreathCurve_04" style="fill:url(#BreathCurve_04_00000041259632541881053350000010347813588973394832_);" d="
		M1399.5,282.9c-3.4-0.1-6.6-1.3-9.1-3.6c-2.7-2.5-5.1-5.4-6.8-8.6c-3.8-6.5-7.6-15.9-11.6-28.5c-7.3-23.3-14-54.6-20.5-84.8
		c-6.1-28.5-12.5-57.9-19-79.3c-3.5-11.4-6.7-19.7-9.9-25.4c-1.2-2.4-2.8-4.5-4.7-6.4c-0.7-0.7-1.5-1.2-2.5-1.4h-1.1
		c-0.9,0.2-1.7,0.7-2.4,1.4c-1.9,1.9-3.5,4-4.7,6.4c-3.2,5.7-6.6,13.9-10.2,25.1c-6.8,21.2-13.3,49.1-20.2,78.6
		c-7.1,30.3-14.4,61.6-22.1,85.1c-4.2,12.8-8.1,22.2-12.1,28.9c-1.8,3.3-4.2,6.2-6.9,8.8c-2.6,2.4-6,3.8-9.5,3.9h-1.2
		c-3.5-0.1-6.8-1.5-9.4-3.9c-2.7-2.5-4.9-5.4-6.7-8.7c-3.8-6.5-7.5-15.8-11.4-28.4c-7.2-23.1-13.9-54-20.5-83.9
		c-6.2-28.6-12.7-58.2-19.3-79.8c-3.5-11.5-6.8-19.8-10.1-25.6c-1.3-2.4-2.9-4.6-4.8-6.5c-0.7-0.7-1.6-1.2-2.6-1.4h-1.1
		c-0.9,0.2-1.8,0.7-2.4,1.4c-1.9,1.9-3.5,4-4.8,6.4c-3.3,5.7-6.7,13.9-10.4,25.1c-7,21.2-13.8,49.1-21,78.6
		c-7.4,30.3-15,61.6-22.9,85.1c-4.3,12.8-8.3,22.2-12.3,28.9c-1.9,3.3-4.2,6.2-7,8.8c-2.6,2.4-6,3.8-9.5,3.9h-1.4
		c-3.5,0.1-6.9-1.2-9.6-3.6c-2.7-2.5-5.1-5.4-6.8-8.6c-3.8-6.5-7.6-15.9-11.6-28.5c-7.3-23.3-14-54.6-20.5-84.8
		c-6.1-28.5-12.5-57.9-19-79.3c-3.5-11.4-6.7-19.7-9.9-25.4c-1.2-2.4-2.8-4.5-4.7-6.4c-0.7-0.7-1.5-1.2-2.5-1.4h-1.1
		c-0.9,0.2-1.7,0.7-2.4,1.4c-1.9,1.9-3.5,4-4.7,6.4c-3.2,5.7-6.6,13.9-10.2,25.1c-6.8,21.2-13.3,49.1-20.2,78.6
		c-7.1,30.3-14.4,61.6-22.1,85.1c-4.2,12.8-8.1,22.2-12.1,28.9c-1.8,3.3-4.2,6.2-6.9,8.8c-2.6,2.4-6,3.8-9.5,3.9H872
		c-3.5-0.1-6.8-1.5-9.4-3.9c-2.7-2.5-4.9-5.4-6.7-8.7c-3.8-6.5-7.5-15.8-11.4-28.4c-7.2-23.1-13.9-54-20.5-83.9
		c-6.2-28.6-12.7-58.2-19.3-79.8c-3.5-11.5-6.8-19.8-10.1-25.6c-1.3-2.4-2.9-4.6-4.8-6.5c-0.7-0.7-1.6-1.2-2.6-1.4h-1.1
		c-0.9,0.2-1.7,0.7-2.4,1.4c-1.9,1.9-3.5,4-4.7,6.4c-3.2,5.7-6.6,13.9-10.2,25.1c-6.8,21.2-13.3,49.1-20.2,78.6
		c-7.1,30.3-14.4,61.6-22.1,85.1c-4.2,12.8-8.1,22.2-12.1,28.9c-1.8,3.3-4.2,6.2-6.9,8.8c-2.6,2.4-6,3.8-9.5,3.9h-1.6
		c-3.5-0.1-6.9-1.5-9.5-3.9c-2.7-2.5-5-5.5-6.8-8.7c-3.8-6.6-7.6-15.9-11.6-28.6c-7.2-23.2-14-54.4-20.5-84.5
		c-6.2-28.4-12.5-57.8-19.1-79.2c-3.5-11.4-6.7-19.7-10-25.4c-1.2-2.4-2.8-4.5-4.7-6.4c-0.7-0.7-1.6-1.2-2.5-1.4h-1.1
		c-0.9,0.2-1.7,0.7-2.4,1.4c-1.9,1.9-3.5,4-4.7,6.4c-3.2,5.7-6.6,13.9-10.2,25.1c-6.8,21.2-13.3,49.1-20.2,78.7
		c-7.1,30.3-14.4,61.6-22.1,85.1c-4.2,12.8-8.1,22.2-12.1,28.9c-1.8,3.3-4.2,6.2-6.9,8.8c-2.6,2.4-6,3.8-9.5,3.9h-1.2
		c-3.5-0.1-6.9-1.5-9.4-3.9c-2.7-2.5-5-5.4-6.7-8.7c-3.8-6.5-7.6-15.9-11.5-28.5c-7.2-23.2-14-54.2-20.5-84.2
		c-6.2-28.5-12.6-58-19.2-79.5c-3.5-11.4-6.8-19.8-10-25.5c-1.2-2.4-2.8-4.5-4.8-6.4c-0.7-0.7-1.6-1.2-2.5-1.4h-1.1
		c-0.9,0.2-1.7,0.7-2.4,1.4c-1.9,1.9-3.5,4-4.7,6.4c-3.2,5.7-6.6,13.9-10.2,25.1c-6.8,21.2-13.3,49.1-20.2,78.6
		c-7.1,30.3-14.4,61.6-22.1,85.1c-4.2,12.8-8.1,22.2-12.1,28.9c-1.8,3.3-4.2,6.2-6.9,8.8c-2.6,2.4-6,3.8-9.5,3.9h-2.3
		c-3.6-0.1-7-1.5-9.6-3.9c-2.8-2.5-5.1-5.5-6.9-8.8c-3.9-6.6-7.7-16.1-11.7-28.9c-7.3-23.5-14-54.8-20.5-85.1
		c-6.3-29.5-12.3-57.4-18.8-78.6c-3.4-11.3-6.7-19.5-9.8-25.1c-1.2-2.3-2.8-4.5-4.7-6.3c-0.7-0.7-1.5-1.2-2.5-1.4h-1.1
		c-0.9,0.2-1.7,0.7-2.4,1.4c-1.9,1.9-3.5,4-4.7,6.4c-3.2,5.7-6.6,13.9-10.2,25.1c-6.8,21.2-13.3,49.1-20.2,78.6
		c-7.1,30.3-14.4,61.6-22.1,85.1c-4.2,12.8-8.1,22.2-12.1,28.9c-1.8,3.3-4.2,6.2-6.9,8.8c-2.6,2.4-6,3.8-9.5,3.9h-1.2
		c-3.6-0.1-7-1.5-9.6-3.9c-2.8-2.5-5.1-5.5-6.9-8.8c-3.9-6.6-7.7-16.1-11.7-28.9c-7.3-23.5-14-54.8-20.6-85.1
		c-6.3-29.5-12.3-57.4-18.8-78.6c-3.4-11.3-6.7-19.5-9.8-25.1c-1.2-2.3-2.8-4.5-4.7-6.3c-0.7-0.7-1.5-1.2-2.5-1.4h-1.1
		c-0.9,0.2-1.7,0.7-2.3,1.4c-1.8,1.9-3.4,4-4.6,6.3c-3.2,5.6-6.4,13.9-9.8,25.1c-6.5,21.2-12.6,49.1-19.1,78.6
		c-6.6,30.3-13.5,61.6-20.8,85.1c-4,12.8-7.8,22.2-11.7,28.9c-1.8,3.3-4.1,6.2-6.8,8.8c-2.6,2.4-6,3.8-9.5,3.9v-6.8
		c1.3-0.2,2.4-0.8,3.3-1.7c2.2-2.1,4-4.5,5.4-7.1c3.6-6.2,7.3-15.3,11.1-27.6c7.3-23.2,14.1-54.4,20.7-84.6
		c6.5-29.6,12.6-57.6,19.2-79.1c3.6-11.7,7-20.3,10.3-26.3c2.8-5,7.4-11.7,14.6-11.7h1.1c3.3,0.1,6.4,1.4,8.8,3.7
		c2.4,2.3,4.5,5,6.1,8c3.4,6,6.8,14.6,10.4,26.3c6.5,21.5,12.6,49.5,18.9,79.1c6.5,30.2,13.2,61.4,20.4,84.6
		c3.9,12.4,7.5,21.4,11.2,27.6c4.8,8.2,8.1,8.8,9,8.8h1.2c1.3-0.2,2.5-0.8,3.4-1.7c2.2-2.1,4-4.5,5.5-7.1
		c3.7-6.2,7.5-15.3,11.5-27.7c7.6-23.2,14.9-54.4,22-84.6c6.9-29.6,13.5-57.6,20.4-79.1c3.7-11.7,7.2-20.3,10.7-26.3
		c2.9-5,7.5-11.7,14.7-11.7h1.1c3.3,0.1,6.4,1.4,8.8,3.7c2.4,2.3,4.5,5,6.1,8c3.4,6,6.8,14.6,10.4,26.3
		c6.5,21.5,12.6,49.5,18.9,79.1c6.5,30.2,13.2,61.4,20.4,84.6c3.9,12.4,7.5,21.4,11.2,27.6c4.8,8.2,8.1,8.8,9,8.8h2.3
		c1.3-0.2,2.5-0.8,3.4-1.7c2.2-2.1,4-4.5,5.5-7.1c3.7-6.2,7.5-15.3,11.5-27.7c7.6-23.2,14.9-54.4,22-84.6
		c6.9-29.6,13.5-57.6,20.4-79.1c3.7-11.7,7.2-20.3,10.7-26.3c2.9-5,7.5-11.7,14.7-11.7h1.1c3.3,0.1,6.5,1.4,8.8,3.7
		c2.5,2.4,4.5,5.1,6.1,8.1c3.5,6.1,6.9,14.8,10.5,26.7c6.7,21.7,13.1,51.3,19.3,80c6.5,29.9,13.2,60.8,20.3,83.7
		c3.8,12.2,7.4,21.1,11,27.3c3.7,6.4,6.8,8.7,8.6,8.7h1.2c1.3-0.2,2.5-0.8,3.4-1.7c2.2-2.1,4-4.5,5.5-7.1
		c3.7-6.2,7.5-15.3,11.5-27.7c7.6-23.2,14.9-54.4,22-84.6c6.9-29.6,13.5-57.6,20.4-79.1c3.7-11.7,7.2-20.3,10.7-26.3
		c2.9-5,7.5-11.7,14.7-11.7h1.1c3.3,0.1,6.4,1.4,8.8,3.7c2.4,2.4,4.5,5.1,6.1,8.1c3.4,6.1,6.9,14.8,10.5,26.6
		c6.6,21.7,13,51.2,19.2,79.7c6.5,30,13.2,61,20.4,84c3.8,12.2,7.4,21.2,11,27.4c3.7,6.4,6.9,8.7,8.7,8.7h1.6
		c1.3-0.2,2.5-0.8,3.4-1.7c2.2-2.1,4-4.5,5.5-7.1c3.7-6.2,7.5-15.3,11.5-27.7c7.6-23.2,14.9-54.4,22-84.6
		c6.9-29.6,13.5-57.6,20.4-79.1c3.7-11.7,7.2-20.3,10.7-26.3c2.9-5,7.5-11.7,14.7-11.7h1.1c3.3,0.1,6.5,1.4,8.8,3.7
		c2.5,2.4,4.5,5.1,6.1,8.2c3.5,6.1,6.9,14.9,10.6,26.8c6.7,21.8,13.2,51.5,19.4,80.2c6.5,29.8,13.2,60.6,20.3,83.5
		c3.8,12.2,7.3,21,10.9,27.2c4.7,8.2,7.9,8.6,8.4,8.6h1.4c1.3-0.2,2.5-0.8,3.4-1.7c2.2-2.1,4-4.5,5.5-7.1
		c3.7-6.2,7.5-15.3,11.5-27.7c7.6-23.2,14.9-54.4,22-84.6c6.9-29.6,13.5-57.6,20.4-79.1c3.7-11.7,7.2-20.3,10.7-26.3
		c2.9-5,7.5-11.7,14.7-11.7h1.1c3.3,0.1,6.4,1.4,8.8,3.7c2.4,2.4,4.5,5.1,6.1,8.1c3.4,6.1,6.9,14.8,10.5,26.6
		c6.6,21.7,13,51.2,19.2,79.8c6.5,30.1,13.2,61.3,20.4,84.3c3.8,12.3,7.4,21.2,11,27.3c3.7,6.3,6.8,8.4,8.5,8.4h0.2h1.5
		c1.3-0.2,2.5-0.8,3.4-1.7c2.2-2.1,4.1-4.5,5.6-7.1c3.8-6.2,7.6-15.3,11.8-27.7c7.8-23.2,15.4-54.4,22.7-84.6
		c7.2-29.6,14-57.6,21.1-79.1c3.9-11.7,7.4-20.3,10.9-26.3c2.9-5,7.6-11.7,14.8-11.7h1.1c3.3,0.1,6.5,1.4,8.8,3.7
		c2.5,2.4,4.5,5.1,6.1,8.2c3.5,6.1,6.9,14.9,10.6,26.8c6.7,21.8,13.2,51.5,19.4,80.2c6.5,29.8,13.2,60.6,20.3,83.5
		c3.8,12.2,7.3,21,10.9,27.2c4.7,8.2,7.9,8.6,8.4,8.6h1.2c1.3-0.2,2.5-0.8,3.4-1.7c2.2-2.1,4-4.5,5.5-7.1
		c3.7-6.2,7.5-15.3,11.5-27.7c7.6-23.2,14.9-54.4,22-84.6c6.9-29.6,13.5-57.6,20.4-79.1c3.7-11.7,7.2-20.3,10.7-26.3
		c2.9-5,7.5-11.7,14.7-11.7h1.1c3.3,0.1,6.4,1.4,8.8,3.7c2.4,2.4,4.5,5.1,6.1,8.1c3.4,6.1,6.8,14.8,10.5,26.6
		c6.6,21.7,13,51.2,19.2,79.8c6.5,30.1,13.2,61.3,20.4,84.3c3.8,12.3,7.4,21.2,11,27.3c3.6,6.2,6.7,8.4,8.4,8.4h0.1l0.4,6.8
		C1399.9,282.9,1399.7,282.9,1399.5,282.9z"/>
	<g id="Layer_2_00000097486897917162505400000000280307575351477378_">
		<g id="Layer_1-2">
			<polyline class="st1" points="1403.8,309.1 1398.3,309.1 1398.3,297.3 1387.4,297.3 1387.4,261.7 1376.3,261.7 1376.3,226.2 
				1365.4,226.2 1365.4,166.9 1354.3,166.9 1354.3,131.4 1343.4,131.4 1343.4,60.3 1332.3,60.3 1332.3,48.4 1321.3,48.4 
				1321.3,12.9 1310.4,12.9 1310.4,24.7 1299.3,24.7 1299.3,84 1288.4,84 1288.4,143.2 1277.3,143.2 1277.3,190.6 1266.4,190.6 
				1266.4,238 1255.4,238 1255.4,273.6 1244.4,273.6 1244.4,321 1233.4,321 1233.4,309.1 1222.3,309.1 1222.3,285.4 1211.4,285.4 
				1211.4,238 1200.3,238 1200.3,190.6 1189.4,190.6 1189.4,143.2 1178.4,143.2 1178.4,72.1 1167.4,72.1 1167.4,48.4 1156.4,48.4 
				1156.4,12.9 1145.4,12.9 1145.4,1 1134.4,1 1134.4,24.7 1123.3,24.7 1123.3,72.1 1112.4,72.1 1112.4,119.5 1101.4,119.5 
				1101.4,166.9 1090.4,166.9 1090.4,214.3 1079.4,214.3 1079.4,249.9 1068.4,249.9 1068.4,309.1 1057.4,309.1 1057.4,321 
				1046.4,321 1046.4,297.3 1035.4,297.3 1035.4,261.7 1024.4,261.7 1024.4,226.2 1013.4,226.2 1013.4,190.6 1002.4,190.6 
				1002.4,143.2 991.4,143.2 991.4,95.8 980.4,95.8 980.4,48.4 969.5,48.4 969.5,12.9 958.4,12.9 958.4,1 947.5,1 947.5,60.3 
				936.4,60.3 936.4,107.7 925.4,107.7 925.4,155.1 914.4,155.1 914.4,202.5 903.4,202.5 903.4,249.9 892.5,249.9 892.5,285.4 
				881.4,285.4 881.4,309.1 870.5,309.1 870.5,297.3 859.4,297.3 859.4,249.9 848.5,249.9 848.5,178.8 837.4,178.8 837.4,131.4 
				826.4,131.4 826.4,95.8 815.5,95.8 815.5,48.4 804.4,48.4 804.4,36.6 793.5,36.6 793.5,1 782.4,1 782.4,24.7 771.5,24.7 
				771.5,84 760.4,84 760.4,131.4 749.4,131.4 749.4,166.9 738.5,166.9 738.5,190.6 727.4,190.6 727.4,238 716.5,238 716.5,285.4 
				705.4,285.4 705.4,321 694.5,321 694.5,297.3 683.5,297.3 683.5,285.4 672.5,285.4 672.5,238 661.5,238 661.5,178.8 650.4,178.8 
				650.4,143.2 639.5,143.2 639.5,84 628.4,84 628.4,48.4 617.5,48.4 617.5,24.7 606.5,24.7 606.5,1 595.5,1 595.5,48.4 584.5,48.4 
				584.5,95.8 573.5,95.8 573.5,143.2 562.5,143.2 562.5,190.6 551.4,190.6 551.4,214.3 540.5,214.3 540.5,249.9 529.5,249.9 
				529.5,297.3 518.5,297.3 518.5,321 507.5,321 507.5,249.9 496.5,249.9 496.5,214.3 485.5,214.3 485.5,202.5 474.5,202.5 
				474.5,155.1 463.5,155.1 463.5,84 452.5,84 452.5,36.6 441.5,36.6 441.5,12.9 430.5,12.9 430.5,24.7 419.5,24.7 419.5,60.3 
				408.5,60.3 408.5,84 397.6,84 397.6,131.4 386.5,131.4 386.5,190.6 375.6,190.6 375.6,226.2 364.5,226.2 364.5,273.6 
				353.5,273.6 353.5,309.1 342.5,309.1 342.5,297.3 331.5,297.3 331.5,273.6 320.6,273.6 320.6,214.3 309.5,214.3 309.5,155.1 
				298.6,155.1 298.6,131.4 287.5,131.4 287.5,72.1 276.6,72.1 276.6,24.7 265.5,24.7 265.5,36.6 260,37.1 			"/>
		</g>
	</g>
</g>
</svg>
