<svg xmlns="http://www.w3.org/2000/svg" xmlns:xlink="http://www.w3.org/1999/xlink" width="1400" height="244.948" viewBox="0 0 1400 244.948">
  <defs>
    <linearGradient id="linear-gradient" x1="0.5" x2="0.5" y2="1" gradientUnits="objectBoundingBox">
      <stop offset="0" stop-color="#ff276a"/>
      <stop offset="1" stop-color="#e557ff"/>
    </linearGradient>
  </defs>
  <path id="BreathCurve_04" d="M1440.865,474.84a14.012,14.012,0,0,1-9.142-3.613,32.961,32.961,0,0,1-6.84-8.611c-3.838-6.513-7.628-15.85-11.588-28.542-7.257-23.266-14.009-54.554-20.539-84.811-6.141-28.454-12.49-57.876-19.04-79.324-3.478-11.389-6.731-19.7-9.945-25.414a26.113,26.113,0,0,0-4.718-6.418,4.681,4.681,0,0,0-2.51-1.426h-1.084a4.544,4.544,0,0,0-2.373,1.392,26.653,26.653,0,0,0-4.712,6.354c-3.236,5.651-6.568,13.876-10.188,25.145-6.817,21.226-13.334,49.114-20.235,78.639-7.081,30.3-14.4,61.629-22.085,85.076-4.189,12.786-8.141,22.226-12.081,28.858a35.619,35.619,0,0,1-6.911,8.785,14.36,14.36,0,0,1-9.526,3.9h-1.192a14,14,0,0,1-9.377-3.867,34.251,34.251,0,0,1-6.668-8.651c-3.767-6.519-7.5-15.8-11.42-28.375-7.185-23.064-13.929-54.015-20.452-83.947-6.233-28.6-12.678-58.182-19.319-79.781-3.528-11.473-6.823-19.849-10.073-25.607a26.44,26.44,0,0,0-4.774-6.477,4.76,4.76,0,0,0-2.558-1.448h-1.084a4.629,4.629,0,0,0-2.408,1.4,27.042,27.042,0,0,0-4.776,6.363c-3.288,5.652-6.7,13.879-10.418,25.149-7.01,21.226-13.782,49.114-20.951,78.64-7.357,30.3-14.964,61.628-22.859,85.074-4.3,12.785-8.342,22.223-12.342,28.854a36.053,36.053,0,0,1-6.984,8.776,14.457,14.457,0,0,1-9.54,3.894h-1.427a13.909,13.909,0,0,1-9.552-3.606,32.969,32.969,0,0,1-6.84-8.611c-3.838-6.513-7.628-15.85-11.587-28.542-7.257-23.266-14.009-54.553-20.539-84.81-6.141-28.454-12.49-57.876-19.04-79.325-3.478-11.389-6.731-19.7-9.945-25.414a26.116,26.116,0,0,0-4.718-6.418,4.68,4.68,0,0,0-2.51-1.426h-1.084a4.543,4.543,0,0,0-2.373,1.392,26.656,26.656,0,0,0-4.712,6.354c-3.236,5.651-6.568,13.876-10.188,25.145-6.817,21.226-13.334,49.113-20.235,78.638-7.081,30.3-14.4,61.629-22.085,85.076-4.189,12.786-8.141,22.226-12.081,28.859a35.618,35.618,0,0,1-6.911,8.785,14.36,14.36,0,0,1-9.526,3.9h-1.409a14,14,0,0,1-9.377-3.867,34.248,34.248,0,0,1-6.668-8.651c-3.767-6.519-7.5-15.8-11.42-28.375-7.185-23.064-13.93-54.015-20.452-83.948-6.233-28.6-12.678-58.182-19.319-79.781-3.528-11.473-6.823-19.849-10.073-25.607a26.44,26.44,0,0,0-4.774-6.477,4.761,4.761,0,0,0-2.558-1.448h-1.084a4.544,4.544,0,0,0-2.373,1.392,26.658,26.658,0,0,0-4.712,6.354c-3.236,5.651-6.569,13.876-10.188,25.146-6.817,21.226-13.334,49.113-20.235,78.638-7.081,30.3-14.4,61.629-22.085,85.076-4.189,12.786-8.141,22.226-12.081,28.859a35.616,35.616,0,0,1-6.911,8.785,14.36,14.36,0,0,1-9.526,3.9h-1.626a14.269,14.269,0,0,1-9.5-3.879,34.4,34.4,0,0,1-6.784-8.725c-3.827-6.575-7.607-15.934-11.558-28.611-7.243-23.244-13.983-54.374-20.5-84.479-6.154-28.427-12.518-57.822-19.081-79.245-3.484-11.374-6.744-19.676-9.964-25.38a26.08,26.08,0,0,0-4.727-6.408,4.705,4.705,0,0,0-2.527-1.427h-1.084a4.544,4.544,0,0,0-2.373,1.392,26.654,26.654,0,0,0-4.712,6.354c-3.236,5.651-6.568,13.876-10.187,25.146C628.119,290.8,621.6,318.686,614.7,348.211c-7.081,30.3-14.4,61.629-22.085,85.076-4.189,12.786-8.141,22.226-12.081,28.859a35.612,35.612,0,0,1-6.911,8.785,14.359,14.359,0,0,1-9.526,3.9h-1.192a14.134,14.134,0,0,1-9.439-3.873,34.331,34.331,0,0,1-6.726-8.688c-3.8-6.547-7.555-15.868-11.489-28.494-7.214-23.155-13.956-54.2-20.476-84.215-6.194-28.515-12.6-58-19.2-79.512-3.506-11.423-6.783-19.762-10.019-25.493a26.262,26.262,0,0,0-4.75-6.442,4.733,4.733,0,0,0-2.543-1.437H477.18a4.544,4.544,0,0,0-2.373,1.392,26.655,26.655,0,0,0-4.712,6.354c-3.236,5.651-6.569,13.876-10.188,25.146-6.816,21.226-13.334,49.113-20.234,78.638-7.081,30.3-14.4,61.629-22.085,85.076-4.189,12.786-8.141,22.226-12.081,28.859a35.622,35.622,0,0,1-6.911,8.785,14.36,14.36,0,0,1-9.526,3.9h-2.276a14.582,14.582,0,0,1-9.644-3.893,34.577,34.577,0,0,1-6.92-8.81c-3.9-6.64-7.728-16.088-11.716-28.882-7.31-23.451-14.041-54.783-20.55-85.084-6.342-29.524-12.333-57.41-18.806-78.631-3.435-11.262-6.654-19.479-9.84-25.122a25.646,25.646,0,0,0-4.674-6.328,4.639,4.639,0,0,0-2.492-1.4h-1.084a4.544,4.544,0,0,0-2.373,1.392,26.656,26.656,0,0,0-4.712,6.354c-3.236,5.651-6.568,13.876-10.188,25.146-6.817,21.226-13.334,49.113-20.235,78.638-7.081,30.3-14.4,61.629-22.085,85.076-4.189,12.786-8.141,22.226-12.081,28.858a35.618,35.618,0,0,1-6.911,8.785,14.36,14.36,0,0,1-9.526,3.9h-1.192a14.581,14.581,0,0,1-9.644-3.893,34.573,34.573,0,0,1-6.92-8.81c-3.9-6.64-7.728-16.088-11.716-28.882-7.31-23.451-14.041-54.784-20.55-85.084-6.342-29.523-12.333-57.409-18.806-78.631-3.435-11.262-6.654-19.479-9.84-25.123a25.654,25.654,0,0,0-4.673-6.328,4.64,4.64,0,0,0-2.492-1.4h-1.084a4.412,4.412,0,0,0-2.318,1.376,26.057,26.057,0,0,0-4.608,6.341c-3.153,5.649-6.364,13.872-9.819,25.139-6.507,21.225-12.619,49.112-19.089,78.637-6.64,30.3-13.506,61.63-20.847,85.078-4,12.788-7.819,22.23-11.664,28.865a34.922,34.922,0,0,1-6.794,8.8,14.2,14.2,0,0,1-9.5,3.92v-6.788a5.7,5.7,0,0,0,3.3-1.714,28.845,28.845,0,0,0,5.383-7.093C53.7,453,57.341,443.953,61.212,431.587c7.266-23.209,14.1-54.417,20.719-84.6,6.5-29.641,12.631-57.638,19.207-79.086,3.578-11.669,6.952-20.271,10.315-26.3,2.807-5.029,7.373-11.715,14.589-11.715h1.084a12.9,12.9,0,0,1,8.763,3.67,31.707,31.707,0,0,1,6.051,8.032c3.405,6.031,6.792,14.639,10.353,26.315,6.543,21.451,12.558,49.451,18.926,79.094,6.483,30.178,13.186,61.383,20.419,84.587,3.853,12.359,7.5,21.4,11.161,27.633,4.8,8.185,8.078,8.821,8.968,8.821h1.192a5.854,5.854,0,0,0,3.361-1.729,29.52,29.52,0,0,0,5.5-7.107c3.709-6.243,7.482-15.29,11.534-27.658,7.6-23.21,14.9-54.418,21.951-84.6,6.927-29.64,13.47-57.637,20.358-79.084,3.747-11.667,7.245-20.267,10.695-26.291,2.873-5.016,7.524-11.685,14.714-11.685h1.084a12.9,12.9,0,0,1,8.763,3.67,31.707,31.707,0,0,1,6.051,8.032c3.405,6.031,6.792,14.639,10.353,26.315,6.543,21.451,12.558,49.451,18.926,79.094,6.483,30.177,13.186,61.383,20.419,84.587,3.853,12.359,7.5,21.4,11.161,27.633,4.8,8.185,8.078,8.821,8.968,8.821h2.276a5.854,5.854,0,0,0,3.361-1.729,29.515,29.515,0,0,0,5.5-7.107c3.709-6.243,7.482-15.29,11.534-27.659,7.6-23.21,14.9-54.418,21.951-84.6,6.927-29.641,13.47-57.637,20.358-79.084,3.747-11.667,7.245-20.267,10.7-26.291,2.873-5.016,7.523-11.685,14.713-11.685h1.084a12.97,12.97,0,0,1,8.824,3.715,32.3,32.3,0,0,1,6.117,8.137c3.453,6.116,6.9,14.842,10.529,26.676,6.672,21.739,13.1,51.343,19.32,79.972,6.494,29.9,13.209,60.816,20.349,83.731,3.8,12.2,7.383,21.121,10.95,27.271,3.7,6.379,6.844,8.652,8.553,8.652H564.1a5.854,5.854,0,0,0,3.361-1.729,29.524,29.524,0,0,0,5.5-7.107c3.709-6.243,7.482-15.29,11.534-27.659,7.6-23.21,14.9-54.418,21.951-84.6,6.927-29.641,13.47-57.637,20.358-79.084,3.747-11.667,7.245-20.267,10.695-26.291,2.873-5.016,7.524-11.685,14.713-11.685h1.084a12.947,12.947,0,0,1,8.805,3.7,32.113,32.113,0,0,1,6.1,8.1c3.438,6.09,6.865,14.78,10.476,26.566,6.633,21.651,13.022,51.165,19.2,79.706,6.491,29.984,13.2,60.988,20.371,83.991,3.817,12.249,7.419,21.205,11.013,27.381,3.734,6.417,6.931,8.7,8.677,8.7h1.626a5.855,5.855,0,0,0,3.361-1.729,29.519,29.519,0,0,0,5.5-7.107c3.709-6.243,7.482-15.29,11.534-27.659,7.6-23.21,14.9-54.418,21.951-84.6,6.927-29.641,13.471-57.637,20.358-79.084,3.747-11.667,7.245-20.267,10.695-26.291,2.873-5.016,7.524-11.685,14.714-11.685h1.084a12.99,12.99,0,0,1,8.843,3.729,32.484,32.484,0,0,1,6.137,8.169c3.467,6.142,6.929,14.9,10.583,26.786,6.712,21.827,13.182,51.522,19.44,80.24,6.5,29.813,13.214,60.642,20.325,83.468,3.786,12.152,7.347,21.036,10.886,27.161,4.731,8.186,7.851,8.6,8.428,8.6H914.8a5.854,5.854,0,0,0,3.361-1.729,29.519,29.519,0,0,0,5.5-7.107c3.709-6.243,7.482-15.29,11.534-27.659,7.6-23.21,14.9-54.418,21.951-84.6,6.927-29.64,13.47-57.637,20.358-79.084,3.747-11.667,7.245-20.267,10.695-26.291,2.873-5.016,7.523-11.685,14.713-11.685H1004a12.912,12.912,0,0,1,8.8,3.709,32.156,32.156,0,0,1,6.083,8.114c3.431,6.1,6.85,14.8,10.453,26.6,6.62,21.677,12.995,51.217,19.16,79.784,6.5,30.135,13.228,61.3,20.409,84.318,3.822,12.254,7.429,21.179,11.026,27.284,3.69,6.263,6.814,8.42,8.5,8.35l.215,0h1.517a5.951,5.951,0,0,0,3.4-1.739,29.951,29.951,0,0,0,5.57-7.116c3.767-6.244,7.622-15.293,11.787-27.663,7.816-23.21,15.393-54.419,22.721-84.6,7.2-29.64,13.995-57.637,21.077-79.083,3.853-11.666,7.429-20.265,10.932-26.287,2.914-5.008,7.617-11.667,14.791-11.667h1.084a12.99,12.99,0,0,1,8.843,3.729,32.484,32.484,0,0,1,6.137,8.169c3.468,6.142,6.929,14.9,10.583,26.786,6.712,21.827,13.182,51.522,19.44,80.24,6.5,29.813,13.214,60.642,20.325,83.468,3.786,12.152,7.347,21.036,10.886,27.161,4.73,8.186,7.851,8.6,8.428,8.6h1.192a5.854,5.854,0,0,0,3.36-1.729,29.518,29.518,0,0,0,5.5-7.107c3.709-6.243,7.482-15.29,11.534-27.658,7.6-23.21,14.9-54.418,21.951-84.6,6.927-29.641,13.47-57.637,20.358-79.084,3.747-11.667,7.245-20.267,10.7-26.291,2.873-5.016,7.523-11.685,14.714-11.685h1.084a12.911,12.911,0,0,1,8.8,3.709,32.149,32.149,0,0,1,6.083,8.114c3.431,6.1,6.85,14.8,10.453,26.6,6.62,21.677,12.995,51.217,19.16,79.784,6.5,30.135,13.228,61.3,20.409,84.318,3.823,12.254,7.429,21.179,11.027,27.284,3.633,6.166,6.712,8.352,8.417,8.352l.08,0,.429,6.779Q1441.132,474.84,1440.865,474.84Z" transform="translate(-41.4 -229.892)" fill="url(#linear-gradient)"/>
</svg>
