<svg xmlns="http://www.w3.org/2000/svg" xmlns:xlink="http://www.w3.org/1999/xlink" viewBox="0 0 1872.02 152"><defs><style>.cls-1{fill:url(#linear-gradient);}</style><linearGradient id="linear-gradient" x1="936.01" y1="152" x2="936.01" gradientUnits="userSpaceOnUse"><stop offset="0" stop-color="#ff276a"/><stop offset="1" stop-color="#e557ff"/></linearGradient></defs><title>Asset 3</title><g id="Layer_2" data-name="Layer 2"><g id="Layer_1-2" data-name="Layer 1"><path class="cls-1" d="M1872,152c-29.22,0-52.69-37.56-75.39-73.88C1775.08,43.65,1752.8,8,1728,8S1681,43.65,1659.41,78.12C1636.71,114.44,1613.24,152,1584,152s-52.69-37.56-75.39-73.88C1487.08,43.65,1464.8,8,1440,8S1393,43.65,1371.41,78.12C1348.71,114.44,1325.24,152,1296,152s-52.74-37.58-75.45-73.92C1199,43.63,1176.79,8,1152,8S1105,43.65,1083.41,78.12C1060.71,114.44,1037.24,152,1008,152s-52.69-37.56-75.39-73.88C911.08,43.65,888.8,8,864,8S817,43.65,795.41,78.12C772.71,114.44,749.24,152,720,152s-52.69-37.56-75.39-73.88C623.08,43.65,600.8,8,576,8S529,43.65,507.41,78.12C484.71,114.44,461.24,152,432,152s-52.74-37.58-75.45-73.92C335,43.63,312.79,8,288,8S241,43.65,219.41,78.12C196.71,114.44,173.24,152,144,152S91.37,114.5,68.68,78.24c-21.52-34.4-43.77-70-68.51-70H0l0-8H.17C29.34.26,52.79,37.75,75.46,74,97,108.41,119.26,144,144,144s47.06-35.65,68.61-70.12C235.33,37.56,258.8,0,288,0s52.66,37.54,75.34,73.84C384.91,108.33,407.19,144,432,144s47.06-35.65,68.61-70.12C523.33,37.56,546.8,0,576,0s52.69,37.56,75.39,73.88C673,108.35,695.24,144,720,144s47.06-35.65,68.61-70.12C811.33,37.56,834.8,0,864,0s52.69,37.56,75.39,73.88C961,108.35,983.24,144,1008,144s47.06-35.65,68.61-70.12C1099.33,37.56,1122.8,0,1152,0s52.66,37.54,75.34,73.84C1248.91,108.33,1271.19,144,1296,144s47.06-35.65,68.61-70.12C1387.33,37.56,1410.8,0,1440,0s52.69,37.56,75.39,73.88C1537,108.35,1559.24,144,1584,144s47.06-35.65,68.61-70.12C1675.33,37.56,1698.8,0,1728,0s52.69,37.56,75.39,73.88C1825,108.35,1847.24,144,1872,144Z"/></g></g></svg>