<?xml version="1.0" encoding="utf-8"?>
<!-- Generator: Adobe Illustrator 26.0.3, SVG Export Plug-In . SVG Version: 6.00 Build 0)  -->
<svg version="1.1" id="Layer_1" xmlns="http://www.w3.org/2000/svg" xmlns:xlink="http://www.w3.org/1999/xlink" x="0px" y="0px"
	 width="17px" height="16.9px" viewBox="0 0 17 16.9" style="enable-background:new 0 0 17 16.9;" xml:space="preserve">
<style type="text/css">
	.st0{fill:#FFFFFF;}
</style>
<g id="Group_412" transform="translate(0 -0.002)">
	<g>
		<g id="Group_411" transform="translate(0 0.002)">
			<path id="Path_240" class="st0" d="M17,8.5C17,3.8,13.2,0,8.5,0S0,3.8,0,8.5c0,4.2,3,7.7,7.2,8.4V11H5V8.5h2.2V6.6
				C7,5,8.2,3.5,9.8,3.3c0.2,0,0.4,0,0.5,0c0.6,0,1.3,0.1,1.9,0.2v2.1h-1.1C10.5,5.5,9.9,6,9.8,6.6c0,0.1,0,0.2,0,0.3v1.6h2.4
				L11.8,11h-2v5.9C14,16.2,17,12.7,17,8.5"/>
		</g>
	</g>
</g>
</svg>
