<svg xmlns="http://www.w3.org/2000/svg" viewBox="0 0 1872.02 244"><defs><style>.cls-1{fill:none;stroke:#2e3192;stroke-miterlimit:10;}</style></defs><title>Asset 2</title><g id="Layer_2" data-name="Layer 2"><g id="Layer_1-2" data-name="Layer 1"><polyline class="cls-1" points="1872.02 234.5 1863.02 234.5 1863.02 225.5 1845.02 225.5 1845.02 198.5 1827.02 198.5 1827.02 171.5 1809.02 171.5 1809.02 126.5 1791.02 126.5 1791.02 99.5 1773.02 99.5 1773.02 45.5 1755.02 45.5 1755.02 36.5 1737.02 36.5 1737.02 9.5 1719.02 9.5 1719.02 18.5 1701.02 18.5 1701.02 63.5 1683.02 63.5 1683.02 108.5 1665.02 108.5 1665.02 144.5 1647.02 144.5 1647.02 180.5 1629.02 180.5 1629.02 207.5 1611.02 207.5 1611.02 243.5 1593.02 243.5 1593.02 234.5 1575.02 234.5 1575.02 216.5 1557.02 216.5 1557.02 180.5 1539.02 180.5 1539.02 144.5 1521.02 144.5 1521.02 108.5 1503.02 108.5 1503.02 54.5 1485.02 54.5 1485.02 36.5 1467.02 36.5 1467.02 9.5 1449.02 9.5 1449.02 0.5 1431.02 0.5 1431.02 18.5 1413.02 18.5 1413.02 54.5 1395.02 54.5 1395.02 90.5 1377.02 90.5 1377.02 126.5 1359.02 126.5 1359.02 162.5 1341.02 162.5 1341.02 189.5 1323.02 189.5 1323.02 234.5 1305.02 234.5 1305.02 243.5 1287.02 243.5 1287.02 225.5 1269.02 225.5 1269.02 198.5 1251.02 198.5 1251.02 171.5 1233.02 171.5 1233.02 144.5 1215.02 144.5 1215.02 108.5 1197.02 108.5 1197.02 72.5 1179.02 72.5 1179.02 36.5 1161.02 36.5 1161.02 9.5 1143.02 9.5 1143.02 0.5 1125.02 0.5 1125.02 45.5 1107.02 45.5 1107.02 81.5 1089.02 81.5 1089.02 117.5 1071.02 117.5 1071.02 153.5 1053.02 153.5 1053.02 189.5 1035.02 189.5 1035.02 216.5 1017.02 216.5 1017.02 234.5 999.02 234.5 999.02 225.5 981.02 225.5 981.02 189.5 963.02 189.5 963.02 135.5 945.02 135.5 945.02 99.5 927.02 99.5 927.02 72.5 909.02 72.5 909.02 36.5 891.02 36.5 891.02 27.5 873.02 27.5 873.02 0.5 855.02 0.5 855.02 18.5 837.02 18.5 837.02 63.5 819.02 63.5 819.02 99.5 801.02 99.5 801.02 126.5 783.02 126.5 783.02 144.5 765.02 144.5 765.02 180.5 747.02 180.5 747.02 216.5 729.02 216.5 729.02 243.5 711.02 243.5 711.02 225.5 693.02 225.5 693.02 216.5 675.02 216.5 675.02 180.5 657.02 180.5 657.02 135.5 639.02 135.5 639.02 108.5 621.02 108.5 621.02 63.5 603.02 63.5 603.02 36.5 585.02 36.5 585.02 18.5 567.02 18.5 567.02 0.5 549.02 0.5 549.02 36.5 531.02 36.5 531.02 72.5 513.02 72.5 513.02 108.5 495.02 108.5 495.02 144.5 477.02 144.5 477.02 162.5 459.02 162.5 459.02 189.5 441.02 189.5 441.02 225.5 423.02 225.5 423.02 243.5 405.02 243.5 405.02 189.5 387.02 189.5 387.02 162.5 369.02 162.5 369.02 153.5 351.02 153.5 351.02 117.5 333.02 117.5 333.02 63.5 315.02 63.5 315.02 27.5 297.02 27.5 297.02 9.5 279.02 9.5 279.02 18.5 261.02 18.5 261.02 45.5 243.02 45.5 243.02 63.5 225.02 63.5 225.02 99.5 207.02 99.5 207.02 144.5 189.02 144.5 189.02 171.5 171.02 171.5 171.02 207.5 153.02 207.5 153.02 234.5 135.02 234.5 135.02 225.5 117.02 225.5 117.02 207.5 99.02 207.5 99.02 162.5 81.02 162.5 81.02 117.5 63.02 117.5 63.02 99.5 45.02 99.5 45.02 54.5 27.02 54.5 27.02 18.5 9.02 18.5 9.02 27.5 0.02 27.84"/></g></g></svg>