<?xml version="1.0" standalone="no"?>
<!DOCTYPE svg PUBLIC "-//W3C//DTD SVG 20010904//EN"
 "http://www.w3.org/TR/2001/REC-SVG-20010904/DTD/svg10.dtd">
<svg version="1.0" xmlns="http://www.w3.org/2000/svg"
 width="700.000000pt" height="700.000000pt" viewBox="0 0 700.000000 700.000000"
 preserveAspectRatio="xMidYMid meet">
<metadata>
Created by potrace 1.14, written by Peter Selinger 2001-2017
</metadata>
<g transform="translate(0.000000,700.000000) scale(0.100000,-0.100000)"
fill="#000000" stroke="none">
<path d="M730 6985 c-182 -36 -330 -114 -461 -245 -71 -70 -129 -142 -129
-158 0 -6 -4 -12 -9 -14 -20 -7 -92 -182 -110 -270 -19 -91 -20 -144 -18
-2823 2 -2611 3 -2733 21 -2790 10 -33 20 -64 23 -68 5 -8 60 83 130 213 18
36 42 79 52 95 10 17 18 33 19 38 1 4 15 33 31 65 51 102 188 404 236 522 26
63 53 129 60 145 37 85 174 446 272 720 65 180 310 890 317 920 2 6 6 17 9 25
3 8 38 114 77 235 40 121 74 227 77 235 3 8 72 213 153 455 82 242 167 492
190 555 23 63 47 133 54 155 22 66 149 405 165 440 5 11 35 85 67 165 31 80
72 177 90 215 17 39 44 99 59 135 27 65 206 427 262 530 80 147 212 342 311
458 l53 62 -968 -1 c-741 -1 -983 -4 -1033 -14z"/>
<path d="M3335 6981 c-151 -37 -279 -117 -415 -259 -316 -329 -594 -897 -977
-1997 -36 -105 -408 -1213 -662 -1975 -28 -85 -56 -164 -60 -175 -5 -11 -28
-74 -50 -140 -98 -291 -321 -879 -391 -1030 -14 -31 -54 -122 -90 -205 -108
-251 -285 -585 -416 -787 -30 -46 -55 -87 -56 -92 -5 -19 97 -114 184 -171 48
-32 123 -72 167 -89 171 -65 -37 -60 2961 -58 l2725 2 85 24 c84 23 164 58
237 102 70 42 193 148 193 167 0 5 -31 56 -69 114 -155 234 -311 533 -456 873
-42 99 -83 193 -91 209 -8 16 -14 33 -14 39 0 5 -6 23 -14 40 -30 65 -66 156
-121 307 -31 85 -60 164 -65 175 -13 30 -53 143 -151 430 -49 142 -90 260 -90
262 -1 2 -2 6 -3 11 -4 14 -227 698 -276 842 -27 80 -85 260 -130 400 -225
704 -430 1297 -530 1535 -102 244 -164 380 -247 545 -120 236 -130 254 -211
374 -204 305 -411 479 -633 532 -13 3 -78 8 -144 9 -89 3 -138 -1 -190 -14z"/>
<path d="M4926 6943 c93 -109 182 -239 279 -408 57 -99 212 -403 255 -500 12
-27 33 -75 47 -105 48 -107 156 -367 210 -505 29 -77 58 -149 63 -160 5 -11
19 -49 31 -85 12 -36 26 -69 30 -75 4 -5 11 -26 17 -45 6 -19 40 -118 77 -220
37 -102 105 -297 152 -435 46 -137 87 -257 90 -265 4 -8 7 -17 8 -20 0 -3 29
-90 63 -195 34 -104 89 -287 122 -405 82 -290 262 -826 331 -985 4 -11 26 -65
48 -120 49 -125 181 -433 214 -500 13 -27 27 -57 30 -65 11 -30 0 4384 -11
4418 -6 17 -9 32 -7 32 10 0 -60 180 -91 237 -117 210 -320 368 -562 436 -75
21 -96 21 -761 25 l-684 3 49 -58z"/>
</g>
</svg>
